<?xml version="1.0" encoding="UTF-8"?>
<svg version="1.1" xmlns="http://www.w3.org/2000/svg" width="199" height="198">
<path d="M0 0 C15.16476405 14.45247968 22.88207525 33.44554721 23.578125 54.20703125 C23.16604462 74.99419688 15.1711507 94.10745694 0.203125 108.58203125 C-15.63423054 122.51051348 -35.07260742 129.65797016 -56.17236328 128.30688477 C-71.69917451 126.94418292 -84.35835081 122.07409843 -96.796875 112.58203125 C-97.88548828 111.76798828 -97.88548828 111.76798828 -98.99609375 110.9375 C-111.59389433 100.76520916 -118.84845581 86.00643139 -122.796875 70.58203125 C-122.96815918 69.98374512 -123.13944336 69.38545898 -123.31591797 68.76904297 C-127.2459228 50.89849306 -123.10501823 31.00695432 -113.796875 15.58203125 C-111.60902453 12.44546685 -109.25406424 9.50949595 -106.796875 6.58203125 C-106.075 5.59203125 -105.353125 4.60203125 -104.609375 3.58203125 C-93.67666308 -9.27998277 -76.08264895 -16.65549718 -59.734375 -19.16796875 C-36.71507581 -20.62951156 -17.49791507 -15.12738747 0 0 Z M-53.796875 -16.41796875 C-56.4097092 -8.38765178 -59.01782353 -0.35582407 -61.61990356 7.67798328 C-62.82826327 11.40823355 -64.03825028 15.13793954 -65.25195312 18.86645508 C-66.42288263 22.46377307 -67.58954136 26.0624501 -68.75323486 29.6621151 C-69.19825993 31.03614396 -69.64482927 32.40967363 -70.09295654 33.78269386 C-70.71968614 35.70382276 -71.34045177 37.62689421 -71.9609375 39.55004883 C-72.31623535 40.64481033 -72.6715332 41.73957184 -73.03759766 42.86750793 C-73.93156014 45.59376421 -73.93156014 45.59376421 -73.796875 48.58203125 C-78.13817228 45.76411088 -82.24714585 42.74422962 -86.296875 39.51953125 C-87.52083231 38.55208203 -88.74479067 37.58463416 -89.96875 36.6171875 C-91.24486478 35.60556098 -92.52090512 34.59384053 -93.796875 33.58203125 C-96.37816586 31.5377661 -98.96194002 29.49668541 -101.546875 27.45703125 C-102.14306641 26.98386475 -102.73925781 26.51069824 -103.35351562 26.02319336 C-106.42555278 23.57497118 -106.42555278 23.57497118 -109.796875 21.58203125 C-108.29681109 25.02982211 -106.29278238 27.40563658 -103.734375 30.14453125 C-100.55902383 33.60763284 -97.49859316 37.11398381 -94.546875 40.76953125 C-90.88841429 45.29143986 -87.11997544 49.69984308 -83.296875 54.08203125 C-78.00385226 60.15105514 -72.84552958 66.30708848 -67.796875 72.58203125 C-70.07159638 74.09851217 -71.98206841 75.19022202 -74.44213867 76.27783203 C-75.16265915 76.598013 -75.88317963 76.91819397 -76.62553406 77.24807739 C-77.39750626 77.58773529 -78.16947845 77.92739319 -78.96484375 78.27734375 C-79.75965652 78.62965057 -80.5544693 78.9819574 -81.37336731 79.34494019 C-83.90921956 80.46825754 -86.44676614 81.5876886 -88.984375 82.70703125 C-90.70519123 83.46849445 -92.42589573 84.23021019 -94.14648438 84.9921875 C-98.36199101 86.85840028 -102.57902122 88.72112972 -106.796875 90.58203125 C-103.2697106 91.78252481 -100.76969041 91.38104615 -97.15795898 90.60986328 C-95.46116249 90.25421799 -95.46116249 90.25421799 -93.73008728 89.89138794 C-92.51333817 89.62687836 -91.29658905 89.36236877 -90.04296875 89.08984375 C-88.790569 88.82444794 -87.53816925 88.55905212 -86.24781799 88.28561401 C-82.92149995 87.58039992 -79.59760864 86.86431936 -76.27404785 86.14624023 C-73.56105234 85.56204263 -70.8464131 84.98571947 -68.13165188 84.40979195 C-62.52144678 83.21925082 -56.91251272 82.02263393 -51.30639648 80.81298828 C-50.31252426 80.59901398 -49.31865204 80.38503967 -48.29466248 80.1645813 C-45.68913729 79.5975007 -45.68913729 79.5975007 -42.796875 78.58203125 C-42.99023438 79.82855469 -43.18359375 81.07507813 -43.3828125 82.359375 C-44.68496044 90.83715358 -45.95168395 99.31667319 -46.984375 107.83203125 C-47.22220703 109.78882813 -47.22220703 109.78882813 -47.46484375 111.78515625 C-47.81212129 115.75637706 -47.85441053 119.59880219 -47.796875 123.58203125 C-45.84538781 120.65480046 -44.97050135 118.38570806 -43.91748047 115.05664062 C-43.557258 113.92536743 -43.19703552 112.79409424 -42.82589722 111.62854004 C-42.44249176 110.40662964 -42.0590863 109.18471924 -41.6640625 107.92578125 C-41.26736359 106.67196655 -40.87066467 105.41815186 -40.46194458 104.12634277 C-39.62339737 101.4743508 -38.78826817 98.82131347 -37.95556641 96.16748047 C-36.88796059 92.76586112 -35.81223112 89.36687698 -34.73397636 85.9686203 C-33.70641432 82.72651214 -32.68550557 79.48232252 -31.6640625 76.23828125 C-31.27660858 75.01637085 -30.88915466 73.79446045 -30.48995972 72.53552246 C-30.13604156 71.40424927 -29.78212341 70.27297607 -29.41748047 69.10742188 C-29.10374481 68.11053345 -28.79000916 67.11364502 -28.46676636 66.08654785 C-27.66767995 63.53110395 -27.66767995 63.53110395 -27.796875 60.58203125 C-22.56340196 62.90352547 -18.57524013 66.00017189 -14.234375 69.64453125 C-12.82798382 70.80739504 -11.42041307 71.96883356 -10.01171875 73.12890625 C-9.31030762 73.70705078 -8.60889648 74.28519531 -7.88623047 74.88085938 C-4.73586187 77.44591761 -1.52478047 79.92815944 1.703125 82.39453125 C2.53952515 83.03370483 2.53952515 83.03370483 3.39282227 83.68579102 C4.66151205 84.6530581 5.93207802 85.61786376 7.203125 86.58203125 C7.203125 82.45458782 5.58562004 81.53508542 2.765625 78.58203125 C-0.66374859 74.92904239 -3.96400282 71.23743759 -7.109375 67.33203125 C-10.76235908 62.80466268 -14.53379424 58.40046475 -18.359375 54.01953125 C-31.7682544 38.63927245 -31.7682544 38.63927245 -33.796875 34.58203125 C-33.13534424 34.48672119 -32.47381348 34.39141113 -31.79223633 34.29321289 C-27.94199594 33.37905931 -24.46513574 31.81989056 -20.87109375 30.203125 C-20.12350296 29.87159927 -19.37591217 29.54007355 -18.60566711 29.19850159 C-16.22976165 28.14358422 -13.85705871 27.08167212 -11.484375 26.01953125 C-9.86934724 25.30096773 -8.254115 24.5828636 -6.63867188 23.86523438 C-2.68901796 22.10947901 1.25777967 20.34744583 5.203125 18.58203125 C5.203125 18.25203125 5.203125 17.92203125 5.203125 17.58203125 C-2.30587478 18.14393273 -9.51086213 19.43671689 -16.859375 21.05078125 C-17.97248047 21.29115112 -19.08558594 21.531521 -20.23242188 21.7791748 C-22.56583675 22.28423977 -24.89867645 22.79196883 -27.23095703 23.30224609 C-30.81276849 24.0855068 -34.39643215 24.8598042 -37.98046875 25.6328125 C-40.25271725 26.12578113 -42.52485672 26.61925264 -44.796875 27.11328125 C-46.40767944 27.4617511 -46.40767944 27.4617511 -48.05102539 27.81726074 C-49.53397095 28.14264832 -49.53397095 28.14264832 -51.046875 28.47460938 C-52.35398437 28.75987488 -52.35398437 28.75987488 -53.6875 29.05090332 C-55.83401081 29.51089807 -55.83401081 29.51089807 -57.796875 30.58203125 C-57.64541016 29.33591064 -57.49394531 28.08979004 -57.33789062 26.8059082 C-56.77581416 22.17508235 -56.21764488 17.54379244 -55.66064453 12.91235352 C-55.41919508 10.90929534 -55.1766914 8.90636394 -54.93310547 6.90356445 C-54.58282551 4.02197565 -54.23636036 1.13994966 -53.890625 -1.7421875 C-53.72657166 -3.08152596 -53.72657166 -3.08152596 -53.5592041 -4.44792175 C-53.08135498 -8.46005162 -52.65081186 -12.36836829 -52.796875 -16.41796875 C-53.126875 -16.41796875 -53.456875 -16.41796875 -53.796875 -16.41796875 Z " fill="#8EC07C" transform="translate(149.796875,44.41796875)"/>
<path d="M0 0 C2.43525769 1.93581112 4.80799451 3.92736493 7.171875 5.94921875 C8.1825 6.71234375 9.193125 7.47546875 10.234375 8.26171875 C29.71872861 26.0878295 39.78691563 51.39756597 41.11279297 77.38671875 C41.72525437 103.95033408 31.37760425 127.89557101 13.921875 147.47265625 C1.3360193 160.64285525 -19.07960299 174.30642193 -37.890625 175.07421875 C-38.53 175.03296875 -39.169375 174.99171875 -39.828125 174.94921875 C-40.158125 175.60921875 -40.488125 176.26921875 -40.828125 176.94921875 C-71.88182444 177.64238168 -96.52420662 173.37798897 -120.828125 152.94921875 C-121.65957031 152.31113281 -122.49101563 151.67304688 -123.34765625 151.015625 C-140.92694721 136.37082986 -151.15573417 112.14881624 -153.828125 89.94921875 C-155.89660197 60.66412634 -146.65515898 35.16263343 -127.828125 12.94921875 C-123.34630978 8.08324794 -118.21202276 3.78941485 -112.828125 -0.05078125 C-112.168125 -0.05078125 -111.508125 -0.05078125 -110.828125 -0.05078125 C-110.828125 -0.71078125 -110.828125 -1.37078125 -110.828125 -2.05078125 C-99.08110704 -7.99133361 -87.80449783 -13.47494694 -74.828125 -16.05078125 C-73.94898437 -16.24027344 -73.06984375 -16.42976563 -72.1640625 -16.625 C-46.76709048 -19.8665339 -20.98471136 -15.21681417 0 0 Z M-108.828125 19.94921875 C-109.6325 20.55765625 -110.436875 21.16609375 -111.265625 21.79296875 C-125.65616222 33.90207934 -134.31287643 53.83955591 -136.046875 72.27490234 C-137.63168575 96.34916817 -129.41254463 116.75469229 -114.0390625 135.08203125 C-101.68488567 148.48762739 -81.86301881 157.9940115 -63.71337891 159.07519531 C-39.36243243 159.91653569 -18.37301168 153.11884123 -0.28759766 136.38378906 C14.90007249 121.4552595 22.47716918 101.07103431 22.671875 80.01171875 C22.44600783 57.43375645 14.63578208 38.72833435 -1.1640625 22.55859375 C-18.38537173 6.17327041 -38.84280523 0.21713662 -62.0234375 0.64453125 C-79.48324901 1.33112117 -95.67888715 8.56224989 -108.828125 19.94921875 Z " fill="#EADAB1" transform="translate(155.828125,19.05078125)"/>
<path d="M0 0 C5.72864263 5.1120721 10.92174824 10.47479719 15 17 C15 17.66 15 18.32 15 19 C14.25468018 19.13986328 13.50936035 19.27972656 12.74145508 19.42382812 C-5.3145062 22.8278769 -23.29287672 26.50661806 -41.23706055 30.45898438 C-42.00774872 30.62810333 -42.77843689 30.79722229 -43.57247925 30.97146606 C-45.02345585 31.29018929 -46.47402117 31.61079258 -47.92410278 31.93356323 C-52.77688136 33 -52.77688136 33 -55 33 C-55.08181939 27.0655373 -54.84150263 21.35226295 -54.125 15.46484375 C-54.04636719 14.78587036 -53.96773438 14.10689697 -53.88671875 13.40734863 C-53.59677243 10.91673762 -53.29789193 8.42717317 -53 5.9375 C-52.34 0.348125 -51.68 -5.24125 -51 -11 C-57.6 9.46 -64.2 29.92 -71 51 C-76.62106918 48.75157233 -76.62106918 48.75157233 -79.53125 46.3125 C-80.17126953 45.78293701 -80.81128906 45.25337402 -81.47070312 44.70776367 C-82.14037109 44.14420166 -82.81003906 43.58063965 -83.5 43 C-84.915499 41.82801537 -86.33218432 40.6574622 -87.75 39.48828125 C-88.81154297 38.61163818 -88.81154297 38.61163818 -89.89453125 37.71728516 C-93.04866781 35.14467424 -96.26553255 32.65792002 -99.5 30.1875 C-100.05751953 29.76146484 -100.61503906 29.33542969 -101.18945312 28.89648438 C-102.45821039 27.92911772 -103.72886216 26.96423641 -105 26 C-98.6956682 33.89094537 -92.31297951 41.68941454 -85.6875 49.3125 C-85.1411792 49.94124023 -84.5948584 50.56998047 -84.03198242 51.21777344 C-81.78780384 53.79849672 -79.5423772 56.37812176 -77.29443359 58.95556641 C-75.65099652 60.84226447 -74.01256877 62.73320833 -72.375 64.625 C-71.87830811 65.19259033 -71.38161621 65.76018066 -70.86987305 66.3449707 C-68.22561392 69.40710616 -65.96126543 72.45919194 -64 76 C-73.3524797 80.45573423 -82.7832158 84.73056905 -92.25 88.9375 C-93.35722412 89.43419189 -94.46444824 89.93088379 -95.60522461 90.44262695 C-96.64815674 90.9037085 -97.69108887 91.36479004 -98.765625 91.83984375 C-99.70180664 92.25613037 -100.63798828 92.67241699 -101.60253906 93.10131836 C-104 94 -104 94 -107 94 C-107 94.66 -107 95.32 -107 96 C-108.485 96.495 -108.485 96.495 -110 97 C-114.11891353 89.16842195 -117.89373832 81.6518749 -120 73 C-120.17055908 72.40243896 -120.34111816 71.80487793 -120.5168457 71.18920898 C-124.45929918 53.32565146 -120.30418045 33.41835617 -111 18 C-108.81214953 14.8634356 -106.45718924 11.9274647 -104 9 C-103.278125 8.01 -102.55625 7.02 -101.8125 6 C-90.87978808 -6.86201402 -73.28577395 -14.23752843 -56.9375 -16.75 C-35.30715383 -18.12335531 -17.06896586 -13.49688904 0 0 Z " fill="#B8BA26" transform="translate(147,42)"/>
<path d="M0 0 C10.36391615 19.62180173 12.64702612 39.40908544 6.67675781 60.890625 C5.07180684 65.89306959 2.65965246 70.47859082 0 75 C-0.99 74.34 -1.98 73.68 -3 73 C-3 72.01 -3 71.02 -3 70 C-3.66 70 -4.32 70 -5 70 C-6.41438406 68.42713316 -7.75604401 66.78860004 -9.0625 65.125 C-12.11025865 61.31164438 -15.20500341 57.60191191 -18.5 54 C-22.3139003 49.81128536 -25.90276573 45.48402429 -29.45703125 41.07421875 C-31.39977879 38.72561304 -33.36883157 36.42720651 -35.38671875 34.14453125 C-36.2669873 33.14619263 -36.2669873 33.14619263 -37.16503906 32.12768555 C-38.32406946 30.81810891 -39.48858033 29.5133571 -40.65917969 28.21411133 C-41.19317383 27.60978271 -41.72716797 27.0054541 -42.27734375 26.3828125 C-42.75421631 25.85059082 -43.23108887 25.31836914 -43.72241211 24.77001953 C-45.26143634 22.63779601 -46.10669714 20.46361312 -47 18 C-16.00756836 4.7175293 -16.00756836 4.7175293 -13.97286987 3.84970093 C-12.65394157 3.28164795 -11.33905842 2.70411235 -10.02835083 2.11734009 C-6.49047217 0.54556032 -3.90054039 -0.35459458 0 0 Z " fill="#D2869A" transform="translate(163,61)"/>
<path d="M0 0 C1.58672915 -0.01305741 3.17348971 -0.02233003 4.76025391 -0.0300293 C5.64387604 -0.03560349 6.52749817 -0.04117767 7.43789673 -0.04692078 C26.01804928 0.29334466 42.49658308 9.44956244 55.5 22.125 C65 32.05822476 65 32.05822476 65 36 C63.88202026 36.20979492 63.88202026 36.20979492 62.74145508 36.42382812 C44.6854938 39.8278769 26.70712328 43.50661806 8.76293945 47.45898438 C7.6069072 47.71266281 7.6069072 47.71266281 6.42752075 47.97146606 C4.97654415 48.29018929 3.52597883 48.61079258 2.07589722 48.93356323 C-2.77688136 50 -2.77688136 50 -5 50 C-5.11252826 43.60558176 -4.72141491 37.49047614 -3.90625 31.15234375 C-3.79526978 30.25504044 -3.68428955 29.35773712 -3.56994629 28.4332428 C-3.21842389 25.60066108 -2.85934606 22.76909869 -2.5 19.9375 C-2.258612 18.00331787 -2.01772186 16.06907353 -1.77734375 14.13476562 C-1.19064544 9.42243886 -0.59717477 4.71101011 0 0 Z " fill="#FB4934" transform="translate(97,25)"/>
<path d="M0 0 C4.61519701 0.75990113 6.72230006 2.12546576 10.25 5.25 C15.36706443 9.68127229 20.62497016 13.88535371 26 18 C26.72993164 18.56364258 27.45986328 19.12728516 28.21191406 19.70800781 C28.90510742 20.23749023 29.59830078 20.76697266 30.3125 21.3125 C30.92738281 21.78300781 31.54226562 22.25351563 32.17578125 22.73828125 C33.98383127 24.06714009 33.98383127 24.06714009 36.12109375 24.97265625 C39.01758745 26.55639397 39.72222043 29.061107 41 32 C38.68776649 35.01684905 36.34685488 38.01003969 34 41 C33.54496094 41.60714844 33.08992188 42.21429688 32.62109375 42.83984375 C19.62692085 59.32498847 -0.06951609 65.5589465 -20 68 C-19.42746155 60.34386534 -17.09513146 53.36586937 -14.74609375 46.09375 C-14.32092681 44.76016387 -13.89638138 43.42637945 -13.47242737 42.09240723 C-12.36234824 38.60526072 -11.24392087 35.12084872 -10.12365723 31.63696289 C-8.97901792 28.07210686 -7.84239974 24.50469592 -6.70507812 20.9375 C-4.47783794 13.95582666 -2.24176077 6.97702623 0 0 Z " fill="#83A598" transform="translate(122,105)"/>
<path d="M0 0 C-1.55915287 7.79210435 -3.89180899 15.23435538 -6.3515625 22.78515625 C-6.77504659 24.09497204 -7.19816661 25.40490558 -7.62094116 26.71495056 C-8.72534729 30.13385949 -9.8346356 33.55116429 -10.94500732 36.96813965 C-12.08091998 40.46672207 -13.21212651 43.96682527 -14.34375 47.46679688 C-16.55794082 54.31268055 -18.77730034 61.15687359 -21 68 C-24.26734474 66.73840335 -26.84155084 65.56678288 -29.53125 63.3125 C-30.17078613 62.78333984 -30.81032227 62.25417969 -31.46923828 61.70898438 C-32.13938965 61.14501953 -32.80954102 60.58105469 -33.5 60 C-34.92330874 58.82150167 -36.34780492 57.64443611 -37.7734375 56.46875 C-38.83643066 55.59089844 -38.83643066 55.59089844 -39.92089844 54.6953125 C-43.915954 51.43771905 -48.02611245 48.33344199 -52.1328125 45.21875 C-55.15375799 42.88101562 -58.07936708 40.46130489 -61 38 C-60.07320072 33.03500384 -57.0658763 29.87387818 -54 26 C-52.948125 24.5459375 -52.948125 24.5459375 -51.875 23.0625 C-40.79048456 10.06564004 -22.93380441 2.47633986 -6.3125 0.25 C-3 0 -3 0 0 0 Z " fill="#F9BC2F" transform="translate(97,25)"/>
<path d="M0 0 C2.375 1.625 2.375 1.625 4 4 C3.9375 7.625 3.9375 7.625 3 11 C-0.49124017 13.32749345 -1.89222251 13.50299316 -6 13 C-8.4375 11.4375 -8.4375 11.4375 -10 9 C-10 5.15278096 -9.81667389 2.93334158 -7.25 0 C-4.29428132 -1.31365275 -3.01638894 -1.13114585 0 0 Z " fill="#EBDBB2" transform="translate(103,90)"/>
<path d="" fill="#595959" transform="translate(0,0)"/>
<path d="" fill="#595959" transform="translate(0,0)"/>
<path d="" fill="#595959" transform="translate(0,0)"/>
<path d="" fill="#3F3F3F" transform="translate(0,0)"/>
<path d="" fill="#595959" transform="translate(0,0)"/>
<path d="" fill="#595959" transform="translate(0,0)"/>
<path d="" fill="#595959" transform="translate(0,0)"/>
<path d="" fill="#3F3F3F" transform="translate(0,0)"/>
<path d="" fill="#3F3F3F" transform="translate(0,0)"/>
<path d="" fill="#3F3F3F" transform="translate(0,0)"/>
<path d="" fill="#595959" transform="translate(0,0)"/>
<path d="" fill="#595959" transform="translate(0,0)"/>
<path d="" fill="#595959" transform="translate(0,0)"/>
<path d="" fill="#3F3F3F" transform="translate(0,0)"/>
<path d="" fill="#595959" transform="translate(0,0)"/>
<path d="" fill="#595959" transform="translate(0,0)"/>
<path d="" fill="#595959" transform="translate(0,0)"/>
<path d="" fill="#595959" transform="translate(0,0)"/>
<path d="" fill="#595959" transform="translate(0,0)"/>
<path d="" fill="#595959" transform="translate(0,0)"/>
<path d="" fill="#595959" transform="translate(0,0)"/>
<path d="" fill="#595959" transform="translate(0,0)"/>
<path d="" fill="#595959" transform="translate(0,0)"/>
<path d="" fill="#595959" transform="translate(0,0)"/>
</svg>
