<?xml version="1.0" encoding="UTF-8"?>
<svg version="1.1" xmlns="http://www.w3.org/2000/svg" width="280" height="280">
<path d="M0 0 C92.4 0 184.8 0 280 0 C280 92.4 280 184.8 280 280 C187.6 280 95.2 280 0 280 C0 187.6 0 95.2 0 0 Z " fill="#282828" transform="translate(0,0)"/>
<path d="M0 0 C1.09723389 0.00418945 2.19446777 0.00837891 3.32495117 0.01269531 C11.50268878 0.12643465 18.82963139 0.93039023 26.6875 3.3125 C28.16089844 3.71275391 28.16089844 3.71275391 29.6640625 4.12109375 C42.47339684 7.92333679 53.64002573 14.59707724 63.6875 23.3125 C64.698125 24.075625 65.70875 24.83875 66.75 25.625 C84.38486574 41.7590261 95.97961982 65.99329781 97.07421875 89.80859375 C97.40413467 102.75824928 96.93650521 115.01402416 92.6875 127.3125 C92.44612305 128.02051758 92.20474609 128.72853516 91.95605469 129.45800781 C83.32819864 153.97414217 65.82078783 172.79968904 42.8671875 184.78515625 C19.19857696 196.06742396 -7.71056044 197.8366603 -32.50830078 189.31152344 C-55.72937035 180.84441607 -76.30301208 163.46063053 -87.37207031 141.1796875 C-98.92913725 116.2566214 -100.91997308 89.28461814 -91.58203125 63.28515625 C-82.06680736 38.61858097 -64.1028982 19.42662314 -40.23730469 8.16455078 C-27.2819684 2.42962896 -14.12667593 -0.07405859 0 0 Z " fill="#B8BA26" transform="translate(139.3125,42.6875)"/>
<path d="M0 0 C1.09723389 0.00418945 2.19446777 0.00837891 3.32495117 0.01269531 C11.50268878 0.12643465 18.82963139 0.93039023 26.6875 3.3125 C28.16089844 3.71275391 28.16089844 3.71275391 29.6640625 4.12109375 C42.47339684 7.92333679 53.64002573 14.59707724 63.6875 23.3125 C64.698125 24.075625 65.70875 24.83875 66.75 25.625 C84.38486574 41.7590261 95.97961982 65.99329781 97.07421875 89.80859375 C97.40413467 102.75824928 96.93650521 115.01402416 92.6875 127.3125 C92.44612305 128.02051758 92.20474609 128.72853516 91.95605469 129.45800781 C83.32819864 153.97414217 65.82078783 172.79968904 42.8671875 184.78515625 C19.19857696 196.06742396 -7.71056044 197.8366603 -32.50830078 189.31152344 C-55.72937035 180.84441607 -76.30301208 163.46063053 -87.37207031 141.1796875 C-98.92913725 116.2566214 -100.91997308 89.28461814 -91.58203125 63.28515625 C-82.06680736 38.61858097 -64.1028982 19.42662314 -40.23730469 8.16455078 C-27.2819684 2.42962896 -14.12667593 -0.07405859 0 0 Z M-52.3125 37.3125 C-53.116875 37.9209375 -53.92125 38.529375 -54.75 39.15625 C-69.14053722 51.26536059 -77.79725143 71.20283716 -79.53125 89.63818359 C-81.11606075 113.71244942 -72.89691963 134.11797354 -57.5234375 152.4453125 C-45.16926067 165.85090864 -25.34739381 175.35729275 -7.19775391 176.43847656 C17.15319257 177.27981694 38.14261332 170.48212248 56.22802734 153.74707031 C71.41569749 138.81854075 78.99279418 118.43431556 79.1875 97.375 C78.96163283 74.7970377 71.15140708 56.0916156 55.3515625 39.921875 C38.13025327 23.53655166 17.67281977 17.58041787 -5.5078125 18.0078125 C-22.96762401 18.69440242 -39.16326215 25.92553114 -52.3125 37.3125 Z " fill="#EBDBB2" transform="translate(139.3125,42.6875)"/>
<path d="M0 0 C10.2745541 19.45261429 12.83645849 39.4504656 6.72314453 60.75830078 C0.44871114 80.20862064 -13.13341315 94.95302942 -31.125 104.375 C-49.08101453 112.78389685 -69.56519982 114.39065156 -88.48852539 108.11547852 C-104.13185413 102.35674371 -116.05448459 92.14606691 -126 79 C-125.505 78.01 -125.505 78.01 -125 77 C-124.34 77 -123.68 77 -123 77 C-123 76.34 -123 75.68 -123 75 C-122.23373291 74.8548999 -121.46746582 74.7097998 -120.67797852 74.56030273 C-116.97212254 73.85631899 -113.26704707 73.14833359 -109.5625 72.4375 C-108.53981018 72.24133087 -108.53981018 72.24133087 -107.49645996 72.04119873 C-94.76977463 69.59307476 -82.09157951 66.94017931 -69.42797852 64.18530273 C-68.75092361 64.03914017 -68.07386871 63.8929776 -67.376297 63.74238586 C-65.54298321 63.34646681 -63.7104282 62.94703883 -61.87792969 62.54736328 C-59 62 -59 62 -56 62 C-57.02294929 72.52331873 -58.06039529 83.03927849 -59.39013672 93.52905273 C-59.82857543 97.0828764 -60 100.39795545 -60 104 C-53.73 84.2 -47.46 64.4 -41 44 C-35.76950517 45.04609897 -34.58396989 45.8541981 -30.75 49.25 C-25.56720575 53.74925657 -20.215977 57.97469486 -14.75 62.125 C-13.98655273 62.70540039 -13.22310547 63.28580078 -12.43652344 63.88378906 C-10.62597129 65.25802376 -8.8139061 66.63019707 -7 68 C-13.30435852 60.10902119 -19.68756631 52.31108838 -26.3125 44.6875 C-26.8580957 44.05875977 -27.40369141 43.43001953 -27.96582031 42.78222656 C-30.77628853 39.54697755 -33.59695702 36.3212414 -36.4296875 33.10546875 C-37.51577112 31.86210679 -38.60171409 30.61862195 -39.6875 29.375 C-40.1925708 28.80740967 -40.6976416 28.23981934 -41.21801758 27.6550293 C-43.91202164 24.55676236 -45.58726198 21.83070126 -47 18 C-16.00756836 4.7175293 -16.00756836 4.7175293 -13.97286987 3.84970093 C-12.65394157 3.28164795 -11.33905842 2.70411235 -10.02835083 2.11734009 C-6.49047217 0.54556032 -3.90054039 -0.35459458 0 0 Z " fill="#8EC07C" transform="translate(203,102)"/>
<path d="M0 0 C0.33 0 0.66 0 1 0 C0.37246634 10.52035554 -0.75305024 20.9223949 -2.0625 31.375 C-2.25097741 32.90100139 -2.43913015 34.42704292 -2.62695312 35.953125 C-3.08090984 39.63588493 -3.53920076 43.31808919 -4 47 C-2.64491333 46.64953613 -2.64491333 46.64953613 -1.26245117 46.29199219 C9.39851647 43.56500748 20.11693345 41.15647013 30.87670898 38.85302734 C33.7231061 38.24236106 36.56759219 37.6232632 39.41210938 37.00390625 C41.23686957 36.61146923 43.06173552 36.21952354 44.88671875 35.828125 C45.72941818 35.6438092 46.57211761 35.45949341 47.44035339 35.26959229 C51.35694733 34.43907767 54.9692767 33.7614293 59 34 C55.56895911 36.86597932 51.78094087 38.59071921 47.71484375 40.35546875 C47.01734512 40.66196854 46.3198465 40.96846832 45.60121155 41.28425598 C44.13232679 41.92801371 42.66228347 42.5691336 41.19116211 43.20776367 C38.93830014 44.18715215 36.69070363 45.17794829 34.44335938 46.16992188 C33.01332265 46.79496183 31.58299384 47.41933401 30.15234375 48.04296875 C29.48041489 48.3397905 28.80848602 48.63661224 28.11619568 48.94242859 C25.23235774 50.18602194 23.17670089 51 20 51 C23.00310236 55.96164738 26.68032022 60.04063039 30.58984375 64.3125 C32.89277004 66.88043078 35.08238732 69.50492962 37.25 72.1875 C42.99037416 79.27736563 48.9988139 86.13119667 55 93 C55.78761719 93.90234375 56.57523437 94.8046875 57.38671875 95.734375 C58.92250174 97.49133566 60.45977001 99.24693824 62 101 C61.67 101.66 61.34 102.32 61 103 C59.49373047 101.76636719 59.49373047 101.76636719 57.95703125 100.5078125 C51.30786379 95.0744181 44.64800463 89.65373752 37.875 84.375 C36.88242188 83.59898437 35.88984375 82.82296875 34.8671875 82.0234375 C32.01538332 80.01085635 29.15970903 78.47203062 26 77 C25.90103424 77.57603973 25.80206848 78.15207947 25.70010376 78.74557495 C24.38239748 85.88785201 22.33724166 92.67253832 20.0859375 99.5703125 C19.71143463 100.73255341 19.33693176 101.89479431 18.95108032 103.09225464 C17.76422404 106.7715308 16.56974199 110.44827789 15.375 114.125 C14.56459736 116.63264877 13.7546964 119.14045973 12.9453125 121.6484375 C10.96934012 127.7675128 8.98711589 133.88453497 7 140 C6.67 140 6.34 140 6 140 C6.39399099 130.00078032 7.25265683 120.118184 8.5 110.1875 C8.69589722 108.62225586 8.69589722 108.62225586 8.89575195 107.02539062 C9.94548628 98.90407683 9.94548628 98.90407683 11 95 C9.55270508 95.3242395 9.55270508 95.3242395 8.07617188 95.6550293 C-2.18986678 97.95315419 -12.45961946 100.23414712 -22.73291016 102.49963379 C-24.82090544 102.96047229 -26.90853328 103.42293895 -28.99609375 103.88574219 C-32.32868673 104.62119227 -35.66361113 105.34449938 -39 106.0625 C-40.4550293 106.38577271 -40.4550293 106.38577271 -41.93945312 106.71557617 C-42.82568359 106.9035376 -43.71191406 107.09149902 -44.625 107.28515625 C-45.38039063 107.44894775 -46.13578125 107.61273926 -46.9140625 107.78149414 C-49.19725179 108.02066249 -50.82387215 107.68650187 -53 107 C-49.05426813 105.21914891 -45.10727862 103.44112234 -41.15917969 101.66552734 C-39.82062782 101.06308261 -38.48240231 100.45991214 -37.14453125 99.85595703 C-29.4942362 96.40301698 -21.83547225 93.01773128 -14 90 C-17.00310236 85.03835262 -20.68032022 80.95936961 -24.58984375 76.6875 C-26.89277004 74.11956922 -29.08238732 71.49507038 -31.25 68.8125 C-36.99037416 61.72263437 -42.9988139 54.86880333 -49 48 C-49.78761719 47.09765625 -50.57523437 46.1953125 -51.38671875 45.265625 C-52.92250174 43.50866434 -54.45977001 41.75306176 -56 40 C-55.67 39.34 -55.34 38.68 -55 38 C-54.33097656 38.57105469 -53.66195312 39.14210937 -52.97265625 39.73046875 C-46.806532 44.93649848 -40.53354268 49.96975598 -34.125 54.875 C-33.412229 55.4218042 -32.69945801 55.9686084 -31.96508789 56.53198242 C-28.06208538 59.5032798 -24.11503763 62.32974047 -20 65 C-19.75523926 63.78578369 -19.51047852 62.57156738 -19.25830078 61.32055664 C-17.86026454 55.04468433 -15.8548736 48.98067936 -13.8671875 42.87109375 C-13.27213913 41.02572777 -13.27213913 41.02572777 -12.66506958 39.14308167 C-11.61982821 35.90173164 -10.56973284 32.66197516 -9.51855469 29.42254639 C-8.44297818 26.10492738 -7.37208821 22.7857965 -6.30078125 19.46679688 C-4.20505753 12.97639283 -2.1041925 6.48766325 0 0 Z " fill="#282828" transform="translate(136,69)"/>
<path d="M0 0 C16.21601357 12.80275347 27.20225998 30.63781268 30.1875 51.1875 C31.97661996 73.90695376 27.84561177 95.35075093 12.92578125 113.1953125 C12.35214844 113.85273438 11.77851563 114.51015625 11.1875 115.1875 C10.41535156 116.15558594 9.64320313 117.12367188 8.84765625 118.12109375 C-2.59675394 131.8311922 -21.3742127 140.13593679 -38.8125 142.1875 C-61.39421962 143.53729584 -82.95692094 138.45327601 -100.46606445 123.38232422 C-116.71392201 108.7403746 -126.75369629 89.38804398 -128.19140625 67.484375 C-128.99954339 46.47924011 -122.62925973 27.14585749 -108.8125 11.1875 C-108.090625 10.1975 -107.36875 9.2075 -106.625 8.1875 C-80.27150686 -22.58657909 -30.77596919 -23.24625342 0 0 Z M-94.8125 5.1875 C-95.54210937 5.73148438 -96.27171875 6.27546875 -97.0234375 6.8359375 C-110.14204915 17.46564259 -119.62803873 34.45721846 -121.8125 51.1875 C-122.11707552 55.27289174 -122.22039195 59.3415095 -122.25 63.4375 C-122.26015137 64.43104492 -122.27030273 65.42458984 -122.28076172 66.44824219 C-122.06749493 84.54888543 -113.79451993 102.57117111 -101.4765625 115.671875 C-85.676192 130.59187295 -66.44118099 137.30993654 -44.8125 137.1875 C-23.57712286 135.67923759 -5.28469961 126.01644178 8.796875 110.26953125 C20.83245431 94.98273001 26.98662256 75.65270558 25.1875 56.1875 C22.51546154 34.67416473 12.98386667 17.76879116 -3.73828125 3.7734375 C-30.9776925 -17.05368296 -68.02436048 -14.80710558 -94.8125 5.1875 Z " fill="#282828" transform="translate(187.8125,76.8125)"/>
<path d="M0 0 C10.36391615 19.62180173 12.64702612 39.40908544 6.67675781 60.890625 C5.07180684 65.89306959 2.65965246 70.47859082 0 75 C-0.99 74.34 -1.98 73.68 -3 73 C-3 72.01 -3 71.02 -3 70 C-3.66 70 -4.32 70 -5 70 C-6.41438406 68.42713316 -7.75604401 66.78860004 -9.0625 65.125 C-12.11025865 61.31164438 -15.20500341 57.60191191 -18.5 54 C-22.3139003 49.81128536 -25.90276573 45.48402429 -29.45703125 41.07421875 C-31.39977879 38.72561304 -33.36883157 36.42720651 -35.38671875 34.14453125 C-36.2669873 33.14619263 -36.2669873 33.14619263 -37.16503906 32.12768555 C-38.32406946 30.81810891 -39.48858033 29.5133571 -40.65917969 28.21411133 C-41.19317383 27.60978271 -41.72716797 27.0054541 -42.27734375 26.3828125 C-42.75421631 25.85059082 -43.23108887 25.31836914 -43.72241211 24.77001953 C-45.26143634 22.63779601 -46.10669714 20.46361312 -47 18 C-16.00756836 4.7175293 -16.00756836 4.7175293 -13.97286987 3.84970093 C-12.65394157 3.28164795 -11.33905842 2.70411235 -10.02835083 2.11734009 C-6.49047217 0.54556032 -3.90054039 -0.35459458 0 0 Z " fill="#D2869A" transform="translate(203,102)"/>
<path d="M0 0 C1.58672915 -0.01305741 3.17348971 -0.02233003 4.76025391 -0.0300293 C5.64387604 -0.03560349 6.52749817 -0.04117767 7.43789673 -0.04692078 C26.01804928 0.29334466 42.49658308 9.44956244 55.5 22.125 C65 32.05822476 65 32.05822476 65 36 C63.88202026 36.20979492 63.88202026 36.20979492 62.74145508 36.42382812 C44.6854938 39.8278769 26.70712328 43.50661806 8.76293945 47.45898438 C7.6069072 47.71266281 7.6069072 47.71266281 6.42752075 47.97146606 C4.97654415 48.29018929 3.52597883 48.61079258 2.07589722 48.93356323 C-2.77688136 50 -2.77688136 50 -5 50 C-5.11252826 43.60558176 -4.72141491 37.49047614 -3.90625 31.15234375 C-3.79526978 30.25504044 -3.68428955 29.35773712 -3.56994629 28.4332428 C-3.21842389 25.60066108 -2.85934606 22.76909869 -2.5 19.9375 C-2.258612 18.00331787 -2.01772186 16.06907353 -1.77734375 14.13476562 C-1.19064544 9.42243886 -0.59717477 4.71101011 0 0 Z " fill="#FA4833" transform="translate(137,66)"/>
<path d="M0 0 C4.61519701 0.75990113 6.72230006 2.12546576 10.25 5.25 C15.36706443 9.68127229 20.62497016 13.88535371 26 18 C26.72993164 18.56364258 27.45986328 19.12728516 28.21191406 19.70800781 C28.90510742 20.23749023 29.59830078 20.76697266 30.3125 21.3125 C30.92738281 21.78300781 31.54226562 22.25351563 32.17578125 22.73828125 C33.98383127 24.06714009 33.98383127 24.06714009 36.12109375 24.97265625 C39.01758745 26.55639397 39.72222043 29.061107 41 32 C38.68776649 35.01684905 36.34685488 38.01003969 34 41 C33.54496094 41.60714844 33.08992188 42.21429688 32.62109375 42.83984375 C19.62692085 59.32498847 -0.06951609 65.5589465 -20 68 C-19.42746155 60.34386534 -17.09513146 53.36586937 -14.74609375 46.09375 C-14.32092681 44.76016387 -13.89638138 43.42637945 -13.47242737 42.09240723 C-12.36234824 38.60526072 -11.24392087 35.12084872 -10.12365723 31.63696289 C-8.97901792 28.07210686 -7.84239974 24.50469592 -6.70507812 20.9375 C-4.47783794 13.95582666 -2.24176077 6.97702623 0 0 Z " fill="#83A598" transform="translate(162,146)"/>
<path d="M0 0 C-1.55915287 7.79210435 -3.89180899 15.23435538 -6.3515625 22.78515625 C-6.77504659 24.09497204 -7.19816661 25.40490558 -7.62094116 26.71495056 C-8.72534729 30.13385949 -9.8346356 33.55116429 -10.94500732 36.96813965 C-12.08091998 40.46672207 -13.21212651 43.96682527 -14.34375 47.46679688 C-16.55794082 54.31268055 -18.77730034 61.15687359 -21 68 C-24.26734474 66.73840335 -26.84155084 65.56678288 -29.53125 63.3125 C-30.17078613 62.78333984 -30.81032227 62.25417969 -31.46923828 61.70898438 C-32.13938965 61.14501953 -32.80954102 60.58105469 -33.5 60 C-34.92330874 58.82150167 -36.34780492 57.64443611 -37.7734375 56.46875 C-38.83643066 55.59089844 -38.83643066 55.59089844 -39.92089844 54.6953125 C-43.915954 51.43771905 -48.02611245 48.33344199 -52.1328125 45.21875 C-55.15375799 42.88101562 -58.07936708 40.46130489 -61 38 C-60.07320072 33.03500384 -57.0658763 29.87387818 -54 26 C-52.948125 24.5459375 -52.948125 24.5459375 -51.875 23.0625 C-39.66768461 8.7491302 -18.65787838 0 0 0 Z " fill="#F9BC2F" transform="translate(137,66)"/>
<path d="M0 0 C2.375 1.625 2.375 1.625 4 4 C3.9375 7.625 3.9375 7.625 3 11 C-0.49124017 13.32749345 -1.89222251 13.50299316 -6 13 C-8.4375 11.4375 -8.4375 11.4375 -10 9 C-10 5.15278096 -9.81667389 2.93334158 -7.25 0 C-4.29428132 -1.31365275 -3.01638894 -1.13114585 0 0 Z " fill="#EBDBB2" transform="translate(143,131)"/>
</svg>
