<?xml version="1.0" encoding="UTF-8"?>
<svg version="1.1" xmlns="http://www.w3.org/2000/svg" width="510" height="341">
<path d="M0 0 C15.16476405 14.45247968 22.88207525 33.44554721 23.578125 54.20703125 C23.16604462 74.99419688 15.1711507 94.10745694 0.203125 108.58203125 C-15.63423054 122.51051348 -35.07260742 129.65797016 -56.17236328 128.30688477 C-71.69917451 126.94418292 -84.35835081 122.07409843 -96.796875 112.58203125 C-97.88548828 111.76798828 -97.88548828 111.76798828 -98.99609375 110.9375 C-111.59389433 100.76520916 -118.84845581 86.00643139 -122.796875 70.58203125 C-122.96815918 69.98374512 -123.13944336 69.38545898 -123.31591797 68.76904297 C-127.2459228 50.89849306 -123.10501823 31.00695432 -113.796875 15.58203125 C-111.60902453 12.44546685 -109.25406424 9.50949595 -106.796875 6.58203125 C-106.075 5.59203125 -105.353125 4.60203125 -104.609375 3.58203125 C-93.67666308 -9.27998277 -76.08264895 -16.65549718 -59.734375 -19.16796875 C-36.71507581 -20.62951156 -17.49791507 -15.12738747 0 0 Z M-53.796875 -16.41796875 C-56.4097092 -8.38765178 -59.01782353 -0.35582407 -61.61990356 7.67798328 C-62.82826327 11.40823355 -64.03825028 15.13793954 -65.25195312 18.86645508 C-66.42288263 22.46377307 -67.58954136 26.0624501 -68.75323486 29.6621151 C-69.19825993 31.03614396 -69.64482927 32.40967363 -70.09295654 33.78269386 C-70.71968614 35.70382276 -71.34045177 37.62689421 -71.9609375 39.55004883 C-72.31623535 40.64481033 -72.6715332 41.73957184 -73.03759766 42.86750793 C-73.93156014 45.59376421 -73.93156014 45.59376421 -73.796875 48.58203125 C-78.13817228 45.76411088 -82.24714585 42.74422962 -86.296875 39.51953125 C-87.52083231 38.55208203 -88.74479067 37.58463416 -89.96875 36.6171875 C-91.24486478 35.60556098 -92.52090512 34.59384053 -93.796875 33.58203125 C-96.37816586 31.5377661 -98.96194002 29.49668541 -101.546875 27.45703125 C-102.14306641 26.98386475 -102.73925781 26.51069824 -103.35351562 26.02319336 C-106.42555278 23.57497118 -106.42555278 23.57497118 -109.796875 21.58203125 C-108.29681109 25.02982211 -106.29278238 27.40563658 -103.734375 30.14453125 C-100.55902383 33.60763284 -97.49859316 37.11398381 -94.546875 40.76953125 C-90.88841429 45.29143986 -87.11997544 49.69984308 -83.296875 54.08203125 C-78.00385226 60.15105514 -72.84552958 66.30708848 -67.796875 72.58203125 C-70.07159638 74.09851217 -71.98206841 75.19022202 -74.44213867 76.27783203 C-75.16265915 76.598013 -75.88317963 76.91819397 -76.62553406 77.24807739 C-77.39750626 77.58773529 -78.16947845 77.92739319 -78.96484375 78.27734375 C-79.75965652 78.62965057 -80.5544693 78.9819574 -81.37336731 79.34494019 C-83.90921956 80.46825754 -86.44676614 81.5876886 -88.984375 82.70703125 C-90.70519123 83.46849445 -92.42589573 84.23021019 -94.14648438 84.9921875 C-98.36199101 86.85840028 -102.57902122 88.72112972 -106.796875 90.58203125 C-103.2697106 91.78252481 -100.76969041 91.38104615 -97.15795898 90.60986328 C-95.46116249 90.25421799 -95.46116249 90.25421799 -93.73008728 89.89138794 C-92.51333817 89.62687836 -91.29658905 89.36236877 -90.04296875 89.08984375 C-88.790569 88.82444794 -87.53816925 88.55905212 -86.24781799 88.28561401 C-82.92149995 87.58039992 -79.59760864 86.86431936 -76.27404785 86.14624023 C-73.56105234 85.56204263 -70.8464131 84.98571947 -68.13165188 84.40979195 C-62.52144678 83.21925082 -56.91251272 82.02263393 -51.30639648 80.81298828 C-50.31252426 80.59901398 -49.31865204 80.38503967 -48.29466248 80.1645813 C-45.68913729 79.5975007 -45.68913729 79.5975007 -42.796875 78.58203125 C-42.99023438 79.82855469 -43.18359375 81.07507813 -43.3828125 82.359375 C-44.68496044 90.83715358 -45.95168395 99.31667319 -46.984375 107.83203125 C-47.22220703 109.78882813 -47.22220703 109.78882813 -47.46484375 111.78515625 C-47.81212129 115.75637706 -47.85441053 119.59880219 -47.796875 123.58203125 C-45.84538781 120.65480046 -44.97050135 118.38570806 -43.91748047 115.05664062 C-43.557258 113.92536743 -43.19703552 112.79409424 -42.82589722 111.62854004 C-42.44249176 110.40662964 -42.0590863 109.18471924 -41.6640625 107.92578125 C-41.26736359 106.67196655 -40.87066467 105.41815186 -40.46194458 104.12634277 C-39.62339737 101.4743508 -38.78826817 98.82131347 -37.95556641 96.16748047 C-36.88796059 92.76586112 -35.81223112 89.36687698 -34.73397636 85.9686203 C-33.70641432 82.72651214 -32.68550557 79.48232252 -31.6640625 76.23828125 C-31.27660858 75.01637085 -30.88915466 73.79446045 -30.48995972 72.53552246 C-30.13604156 71.40424927 -29.78212341 70.27297607 -29.41748047 69.10742188 C-29.10374481 68.11053345 -28.79000916 67.11364502 -28.46676636 66.08654785 C-27.66767995 63.53110395 -27.66767995 63.53110395 -27.796875 60.58203125 C-22.56340196 62.90352547 -18.57524013 66.00017189 -14.234375 69.64453125 C-12.82798382 70.80739504 -11.42041307 71.96883356 -10.01171875 73.12890625 C-9.31030762 73.70705078 -8.60889648 74.28519531 -7.88623047 74.88085938 C-4.73586187 77.44591761 -1.52478047 79.92815944 1.703125 82.39453125 C2.53952515 83.03370483 2.53952515 83.03370483 3.39282227 83.68579102 C4.66151205 84.6530581 5.93207802 85.61786376 7.203125 86.58203125 C7.203125 82.45458782 5.58562004 81.53508542 2.765625 78.58203125 C-0.66374859 74.92904239 -3.96400282 71.23743759 -7.109375 67.33203125 C-10.76235908 62.80466268 -14.53379424 58.40046475 -18.359375 54.01953125 C-31.7682544 38.63927245 -31.7682544 38.63927245 -33.796875 34.58203125 C-33.13534424 34.48672119 -32.47381348 34.39141113 -31.79223633 34.29321289 C-27.94199594 33.37905931 -24.46513574 31.81989056 -20.87109375 30.203125 C-20.12350296 29.87159927 -19.37591217 29.54007355 -18.60566711 29.19850159 C-16.22976165 28.14358422 -13.85705871 27.08167212 -11.484375 26.01953125 C-9.86934724 25.30096773 -8.254115 24.5828636 -6.63867188 23.86523438 C-2.68901796 22.10947901 1.25777967 20.34744583 5.203125 18.58203125 C5.203125 18.25203125 5.203125 17.92203125 5.203125 17.58203125 C-2.31291856 18.13919193 -9.50943846 19.44976061 -16.859375 21.0859375 C-17.97248047 21.32867905 -19.08558594 21.57142059 -20.23242188 21.82151794 C-23.75508856 22.59056977 -27.27604185 23.36713245 -30.796875 24.14453125 C-34.34653208 24.92424553 -37.89652801 25.70235938 -41.44702148 26.47825623 C-43.64890517 26.95985309 -45.85025864 27.44388177 -48.05102539 27.93055725 C-49.03965576 28.14755783 -50.02828613 28.36455841 -51.046875 28.58813477 C-51.91828125 28.78053238 -52.7896875 28.97292999 -53.6875 29.17115784 C-55.796875 29.58203125 -55.796875 29.58203125 -57.796875 29.58203125 C-57.64541016 28.36620361 -57.49394531 27.15037598 -57.33789062 25.89770508 C-56.77574186 21.37871333 -56.21759512 16.85923471 -55.66064453 12.33959961 C-55.41922057 10.3850377 -55.17671734 8.43060878 -54.93310547 6.47631836 C-54.58275808 3.66424433 -54.23631849 0.85171196 -53.890625 -1.9609375 C-53.7812561 -2.83195602 -53.67188721 -3.70297455 -53.5592041 -4.60038757 C-53.07566737 -8.5635646 -52.65356088 -12.41592191 -52.796875 -16.41796875 C-53.126875 -16.41796875 -53.456875 -16.41796875 -53.796875 -16.41796875 Z " fill="#8EC07C" transform="translate(303.796875,50.41796875)"/>
<path d="M0 0 C2.43525769 1.93581112 4.80799451 3.92736493 7.171875 5.94921875 C8.1825 6.71234375 9.193125 7.47546875 10.234375 8.26171875 C29.71872861 26.0878295 39.78691563 51.39756597 41.11279297 77.38671875 C41.72525437 103.95033408 31.37760425 127.89557101 13.921875 147.47265625 C1.3360193 160.64285525 -19.07960299 174.30642193 -37.890625 175.07421875 C-38.53 175.03296875 -39.169375 174.99171875 -39.828125 174.94921875 C-40.158125 175.60921875 -40.488125 176.26921875 -40.828125 176.94921875 C-71.88182444 177.64238168 -96.52420662 173.37798897 -120.828125 152.94921875 C-121.65957031 152.31113281 -122.49101562 151.67304688 -123.34765625 151.015625 C-140.92694721 136.37082986 -151.15573417 112.14881624 -153.828125 89.94921875 C-155.89660197 60.66412634 -146.65515898 35.16263343 -127.828125 12.94921875 C-123.34630978 8.08324794 -118.21202276 3.78941485 -112.828125 -0.05078125 C-112.168125 -0.05078125 -111.508125 -0.05078125 -110.828125 -0.05078125 C-110.828125 -0.71078125 -110.828125 -1.37078125 -110.828125 -2.05078125 C-99.08110704 -7.99133361 -87.80449783 -13.47494694 -74.828125 -16.05078125 C-73.94898438 -16.24027344 -73.06984375 -16.42976563 -72.1640625 -16.625 C-46.76709048 -19.8665339 -20.98471136 -15.21681417 0 0 Z M-108.828125 19.94921875 C-109.6325 20.55765625 -110.436875 21.16609375 -111.265625 21.79296875 C-125.65616222 33.90207934 -134.31287643 53.83955591 -136.046875 72.27490234 C-137.63168575 96.34916817 -129.41254463 116.75469229 -114.0390625 135.08203125 C-101.68488567 148.48762739 -81.86301881 157.9940115 -63.71337891 159.07519531 C-39.36243243 159.91653569 -18.37301168 153.11884123 -0.28759766 136.38378906 C14.90007249 121.4552595 22.47716918 101.07103431 22.671875 80.01171875 C22.44600783 57.43375645 14.63578208 38.72833435 -1.1640625 22.55859375 C-18.38537173 6.17327041 -38.84280523 0.21713662 -62.0234375 0.64453125 C-79.48324901 1.33112117 -95.67888715 8.56224989 -108.828125 19.94921875 Z " fill="#EADAB1" transform="translate(309.828125,25.05078125)"/>
<path d="M0 0 C5.72864263 5.1120721 10.92174824 10.47479719 15 17 C15 17.66 15 18.32 15 19 C14.25468018 19.13986328 13.50936035 19.27972656 12.74145508 19.42382812 C9.09749605 20.11081532 5.4547143 20.80383473 1.8125 21.5 C1.1371521 21.62883575 0.4618042 21.75767151 -0.23400879 21.89041138 C-8.91228342 23.55200579 -17.56236098 25.31332128 -26.19140625 27.21484375 C-27.03209152 27.39967316 -27.87277679 27.58450256 -28.73893738 27.77493286 C-32.87841181 28.68718688 -37.01511269 29.6103865 -41.14916992 30.546875 C-42.6671089 30.8843218 -44.18509176 31.22157127 -45.703125 31.55859375 C-46.39865982 31.71972153 -47.09419464 31.8808493 -47.81080627 32.04685974 C-51.06521789 32.76250998 -52.77247974 33.07584009 -56 32 C-53.525 10.715 -53.525 10.715 -51 -11 C-57.6 9.46 -64.2 29.92 -71 51 C-76.62106918 48.75157233 -76.62106918 48.75157233 -79.53125 46.3125 C-80.17126953 45.78293701 -80.81128906 45.25337402 -81.47070312 44.70776367 C-82.14037109 44.14420166 -82.81003906 43.58063965 -83.5 43 C-84.915499 41.82801537 -86.33218432 40.6574622 -87.75 39.48828125 C-88.81154297 38.61163818 -88.81154297 38.61163818 -89.89453125 37.71728516 C-93.04866781 35.14467424 -96.26553255 32.65792002 -99.5 30.1875 C-100.05751953 29.76146484 -100.61503906 29.33542969 -101.18945312 28.89648438 C-102.45821039 27.92911772 -103.72886216 26.96423641 -105 26 C-98.6956682 33.89094537 -92.31297951 41.68941454 -85.6875 49.3125 C-85.1411792 49.94124023 -84.5948584 50.56998047 -84.03198242 51.21777344 C-81.78780384 53.79849672 -79.5423772 56.37812176 -77.29443359 58.95556641 C-75.65099652 60.84226447 -74.01256877 62.73320833 -72.375 64.625 C-71.87830811 65.19259033 -71.38161621 65.76018066 -70.86987305 66.3449707 C-68.22561392 69.40710616 -65.96126543 72.45919194 -64 76 C-73.3524797 80.45573423 -82.7832158 84.73056905 -92.25 88.9375 C-93.35722412 89.43419189 -94.46444824 89.93088379 -95.60522461 90.44262695 C-96.64815674 90.9037085 -97.69108887 91.36479004 -98.765625 91.83984375 C-99.70180664 92.25613037 -100.63798828 92.67241699 -101.60253906 93.10131836 C-104 94 -104 94 -107 94 C-107 94.66 -107 95.32 -107 96 C-108.485 96.495 -108.485 96.495 -110 97 C-114.11891353 89.16842195 -117.89373832 81.6518749 -120 73 C-120.17055908 72.40243896 -120.34111816 71.80487793 -120.5168457 71.18920898 C-124.45929918 53.32565146 -120.30418045 33.41835617 -111 18 C-108.81214953 14.8634356 -106.45718924 11.9274647 -104 9 C-103.278125 8.01 -102.55625 7.02 -101.8125 6 C-90.87978808 -6.86201402 -73.28577395 -14.23752843 -56.9375 -16.75 C-35.30715383 -18.12335531 -17.06896586 -13.49688904 0 0 Z " fill="#B8BA26" transform="translate(301,48)"/>
<path d="M0 0 C8.25 0 16.5 0 25 0 C25.49371094 3.34640625 25.98742187 6.6928125 26.49609375 10.140625 C26.97551566 13.38076753 27.45562013 16.62080823 27.93579102 19.86083984 C28.26918789 22.11301282 28.60187485 24.36529101 28.93383789 26.61767578 C29.41105628 29.85477155 29.89082468 33.09148062 30.37109375 36.328125 C30.51904892 37.33554749 30.66700409 38.34296997 30.81944275 39.38092041 C30.95951248 40.32159363 31.09958221 41.26226685 31.24389648 42.23144531 C31.36603012 43.05751282 31.48816376 43.88358032 31.61399841 44.73468018 C31.97610054 46.85974174 32.44605905 48.91761067 33 51 C33.08547592 50.42006287 33.17095184 49.84012573 33.25901794 49.24261475 C34.14888179 43.20777435 35.04152741 37.17335011 35.93579102 31.13916016 C36.26918789 28.88698718 36.60187485 26.63470899 36.93383789 24.38232422 C37.41105628 21.14522845 37.89082468 17.90851938 38.37109375 14.671875 C38.51904892 13.66445251 38.66700409 12.65703003 38.81944275 11.61907959 C38.95951248 10.67840637 39.09958221 9.73773315 39.24389648 8.76855469 C39.36603012 7.94248718 39.48816376 7.11641968 39.61399841 6.26531982 C39.97328525 4.15678032 40.48123303 2.07506788 41 0 C48.92 0 56.84 0 65 0 C65 33.99 65 67.98 65 103 C60.71 103 56.42 103 52 103 C51.67 80.89 51.34 58.78 51 36 C50.15170606 39.39317575 49.53025586 42.6800511 48.984375 46.12963867 C48.7874707 47.36739548 48.59056641 48.60515228 48.38769531 49.88041687 C48.23185974 50.8674891 48.23185974 50.8674891 48.07287598 51.87450218 C47.74684768 53.93791965 47.41824059 56.00091101 47.08886719 58.063797 C46.15304964 63.92693122 45.2207767 69.79062217 44.29296875 75.6550293 C43.7246912 79.24577414 43.15248152 82.83587381 42.57775879 86.42559242 C42.35934302 87.79494519 42.14246322 89.16454383 41.92712402 90.53438377 C41.62699172 92.4430231 41.32144711 94.35080901 41.015625 96.25854492 C40.84321289 97.34568283 40.67080078 98.43282074 40.49316406 99.55290222 C40 102 40 102 39 103 C34.66684941 103.1438629 30.33487639 103.04208618 26 103 C23.20479294 88.89660517 21.0151301 74.70572674 18.8125 60.5 C18.44098002 58.11585037 18.06923688 55.73173551 17.69726562 53.34765625 C16.79560652 47.56550202 15.89669331 41.78292629 15 36 C14.98969254 36.82463242 14.97938507 37.64926483 14.96876526 38.49888611 C14.8709612 46.25405684 14.76847166 54.00914453 14.66066074 61.76418209 C14.60539527 65.75153216 14.55196963 69.73888952 14.50268555 73.72631836 C14.45509524 77.57131601 14.40275464 81.41622182 14.34705925 85.26111031 C14.32661143 86.73116342 14.30790244 88.20124174 14.29092598 89.67133904 C14.26693536 91.72361276 14.2368741 93.77571147 14.20532227 95.82788086 C14.18977798 96.99814316 14.1742337 98.16840546 14.15821838 99.37413025 C14 102 14 102 13 103 C10.81360547 103.07258946 8.62499611 103.08373783 6.4375 103.0625 C4.64119141 103.04896484 4.64119141 103.04896484 2.80859375 103.03515625 C1.41833984 103.01775391 1.41833984 103.01775391 0 103 C0 100.03 0 97.06 0 94 C-0.99 93.67 -1.98 93.34 -3 93 C-2.01 93 -1.02 93 0 93 C-0.16455185 92.35331863 -0.3291037 91.70663727 -0.49864197 91.0403595 C-1.14345078 87.13007887 -1.08522709 83.30212527 -1.02172852 79.35424805 C-1.0073172 78.06568153 -1.0073172 78.06568153 -0.99261475 76.75108337 C-0.95972282 73.9212092 -0.9193533 71.09149417 -0.87890625 68.26171875 C-0.85459555 66.29588883 -0.83075246 64.33005307 -0.80735779 62.36421204 C-0.74461145 57.19714702 -0.67551809 52.03018565 -0.60510254 46.86322021 C-0.53433367 41.58789784 -0.46956792 36.31250213 -0.40429688 31.03710938 C-0.27540633 20.69132343 -0.13925563 10.34565163 0 0 Z " fill="#EADAB1" transform="translate(430,231)"/>
<path d="M0 0 C29.61538462 0 29.61538462 0 35.75 5.4375 C39.49681765 9.704709 40.24703519 12.54790246 40.34375 18.2265625 C40.37339844 19.4228125 40.40304687 20.6190625 40.43359375 21.8515625 C40.47800203 24.37499758 40.52227201 26.89843511 40.56640625 29.421875 C40.59605469 30.61554688 40.62570312 31.80921875 40.65625 33.0390625 C40.68428711 34.68189209 40.68428711 34.68189209 40.71289062 36.35791016 C40.73772024 39.15543929 40.73772024 39.15543929 43 41 C42.01 41 41.02 41 40 41 C40.01571045 41.81678223 40.0314209 42.63356445 40.04760742 43.47509766 C40.1101394 47.19166077 40.14904944 50.90811296 40.1875 54.625 C40.21263672 55.91019531 40.23777344 57.19539063 40.26367188 58.51953125 C40.27333984 59.76347656 40.28300781 61.00742187 40.29296875 62.2890625 C40.3086792 63.43068848 40.32438965 64.57231445 40.34057617 65.74853516 C39.88812133 70.06810044 38.60286775 73.62611335 35.25 76.5 C33.6978164 78.00332353 33.6978164 78.00332353 34.23046875 80.546875 C35.17016175 84.76356848 36.56667586 88.70329248 38.0625 92.75 C41 100.74914188 41 100.74914188 41 103 C36.05 103 31.1 103 26 103 C22.93621252 95.98553919 20.37966866 89.5254654 19 82 C18.01 82 17.02 82 16 82 C16 88.93 16 95.86 16 103 C11.05 103 6.1 103 1 103 C0.67 69.01 0.34 35.02 0 0 Z M16 14 C16 31.49 16 48.98 16 67 C18.97 67 21.94 67 25 67 C26.62380416 65.37619584 26.14372989 63.57125398 26.16113281 61.32836914 C26.17074036 60.33386246 26.1803479 59.33935577 26.19024658 58.31471252 C26.19449646 57.23245895 26.19874634 56.15020538 26.203125 55.03515625 C26.20882507 53.9315123 26.21452515 52.82786835 26.22039795 51.69078064 C26.22986397 49.35123661 26.23638826 47.01167916 26.24023438 44.67211914 C26.24994912 41.08130825 26.28096177 37.49106723 26.3125 33.90039062 C26.31902865 31.63281592 26.32427966 29.3652371 26.328125 27.09765625 C26.3404718 26.01742691 26.3528186 24.93719757 26.36553955 23.82423401 C26.36253845 22.82657516 26.35953735 21.82891632 26.35644531 20.80102539 C26.36009094 19.92023819 26.36373657 19.03945099 26.36749268 18.13197327 C26.24622009 17.42842209 26.12494751 16.72487091 26 16 C22.63019987 13.35284977 22.63019987 13.35284977 16 14 Z " fill="#EADAB1" transform="translate(313,231)"/>
<path d="M0 0 C4.62 0 9.24 0 14 0 C14 11.55 14 23.1 14 35 C17.63 35 21.26 35 25 35 C25 23.45 25 11.9 25 0 C29.95 0 34.9 0 40 0 C40 33.99 40 67.98 40 103 C35.05 103 30.1 103 25 103 C25 85.18 25 67.36 25 49 C21.37 49 17.74 49 14 49 C14 66.82 14 84.64 14 103 C9.38 103 4.76 103 0 103 C0 69.01 0 35.02 0 0 Z " fill="#EBDBB2" transform="translate(11,231)"/>
<path d="M0 0 C2.9375 2.5625 2.9375 2.5625 5 5 C5 5.66 5 6.32 5 7 C5.66 7.33 6.32 7.66 7 8 C8.0283474 13.03890228 8.08970351 17.88689982 8 23 C3.05 23 -1.9 23 -7 23 C-7.33 20.03 -7.66 17.06 -8 14 C-11.99032841 13.39735687 -11.99032841 13.39735687 -16 13 C-17.89122114 14.89122114 -17.12782618 18.19591572 -17.12939453 20.70703125 C-17.13114685 21.40782806 -17.13289917 22.10862488 -17.13470459 22.83065796 C-17.13912266 25.15796349 -17.13618529 27.48519364 -17.1328125 29.8125 C-17.13348555 31.42293309 -17.13445559 33.03336609 -17.13571167 34.64379883 C-17.13718858 38.02328455 -17.13503431 41.4027439 -17.13037109 44.78222656 C-17.1246738 49.12376505 -17.12795285 53.46524173 -17.13394356 57.80677795 C-17.13754936 61.13350901 -17.1364105 64.4602253 -17.13381577 67.78695679 C-17.13314655 69.38821418 -17.13397474 70.9894729 -17.13629532 72.59072876 C-17.13882216 74.82484511 -17.13498085 77.05886 -17.12939453 79.29296875 C-17.12859894 80.5668042 -17.12780334 81.84063965 -17.12698364 83.15307617 C-17.325344 85.89962137 -17.325344 85.89962137 -16 87 C-13.36 87.33 -10.72 87.66 -8 88 C-7.67 74.8 -7.34 61.6 -7 48 C-9.64 48 -12.28 48 -15 48 C-15 43.05 -15 38.1 -15 33 C-11.35411831 32.97317013 -7.70843154 32.95324431 -4.0625 32.9375 C-3.02158203 32.92912109 -1.98066406 32.92074219 -0.90820312 32.91210938 C0.08115234 32.90888672 1.07050781 32.90566406 2.08984375 32.90234375 C3.00628662 32.89710693 3.92272949 32.89187012 4.86694336 32.88647461 C7 33 7 33 8 34 C8.1036313 35.51741865 8.13851358 37.0396086 8.14526367 38.56054688 C8.15164352 39.53245972 8.15802338 40.50437256 8.16459656 41.5057373 C8.16570938 42.56603149 8.1668222 43.62632568 8.16796875 44.71875 C8.17296135 46.34931335 8.17296135 46.34931335 8.17805481 48.01281738 C8.18313187 50.32299373 8.1854629 52.63317745 8.18530273 54.94335938 C8.18747353 58.45715731 8.20557743 61.97063335 8.22460938 65.484375 C8.22754638 67.7291656 8.22952912 69.97395768 8.23046875 72.21875 C8.23765427 73.26285034 8.24483978 74.30695068 8.25224304 75.38269043 C8.22545101 84.06594104 7.94470127 92.07577224 1.6875 98.55859375 C-3.41716126 102.91882524 -8.80949296 103.54713758 -15.28125 103.3515625 C-20.78922673 102.63932413 -24.58144999 100.49321054 -28.375 96.5 C-32.43001317 90.26151821 -32.47732367 85.23709193 -32.6875 77.875 C-32.72439941 76.6070459 -32.76129883 75.3390918 -32.79931641 74.03271484 C-33.1028898 61.69454624 -33.05930971 49.34938022 -32.91177368 37.00933838 C-32.88734534 34.76116052 -32.87082883 32.51288216 -32.86239624 30.2645874 C-32.84691536 27.06356759 -32.79872155 23.86458919 -32.7421875 20.6640625 C-32.74329781 19.22809723 -32.74329781 19.22809723 -32.74443054 17.76312256 C-32.58278218 11.35412694 -31.18343378 6.93763819 -27 2 C-19.02333691 -4.34877266 -8.93799447 -5.08238901 0 0 Z " fill="#EADAB1" transform="translate(293,232)"/>
<path d="M0 0 C5.11520579 3.6877065 8.69132347 7.91984885 10.6875 13.9375 C10.94819641 17.22506714 10.94819641 17.22506714 10.9621582 21.00341797 C10.96726913 21.69516113 10.97238007 22.3869043 10.97764587 23.09960938 C10.99149579 25.37639119 10.99058844 27.65286867 10.98828125 29.9296875 C10.99217108 31.52003084 10.99650634 33.11037314 11.00126648 34.70071411 C11.00871906 38.03114186 11.00844468 41.36146359 11.00317383 44.69189453 C10.99738434 48.94767845 11.01430202 53.20302643 11.0375185 57.45873833 C11.052293 60.74283359 11.05312244 64.02682481 11.05000877 67.31094742 C11.05052025 68.87934354 11.05572521 70.44774575 11.06582069 72.01610947 C11.0782387 74.215287 11.07136201 76.41362756 11.05981445 78.61279297 C11.06044388 79.86123993 11.0610733 81.10968689 11.0617218 82.39596558 C10.42151874 88.45467508 8.03262592 93.59237408 3.6875 97.9375 C-1.96650263 101.95171069 -7.48831078 102.8779765 -14.3125 101.9375 C-20.02601661 99.8892582 -23.82080384 96.4275633 -26.93177795 91.23446655 C-28.53043362 87.41710572 -28.69931486 84.62987326 -28.71655273 80.49853516 C-28.72341599 79.77899155 -28.73027924 79.05944794 -28.73735046 78.31809998 C-28.75555909 75.95404986 -28.75178913 73.59066729 -28.74609375 71.2265625 C-28.75065897 69.57278225 -28.75596556 67.91900389 -28.76197815 66.26522827 C-28.77089801 62.80369345 -28.7684997 59.34238947 -28.75854492 55.88085938 C-28.7470666 51.46028289 -28.76725452 47.04050658 -28.79646206 42.62003517 C-28.81487294 39.20548498 -28.81452175 35.79112473 -28.80882454 32.37653732 C-28.80867187 30.74756118 -28.8146712 29.11857171 -28.82711601 27.4896431 C-28.93035049 11.7602201 -28.93035049 11.7602201 -24.3125 4.9375 C-23.9825 4.6075 -23.6525 4.2775 -23.3125 3.9375 C-23.9725 3.2775 -24.6325 2.6175 -25.3125 1.9375 C-24.61125 1.999375 -23.91 2.06125 -23.1875 2.125 C-20.22659408 2.14294548 -20.22659408 2.14294548 -17.6875 0.4375 C-11.92173058 -2.12506419 -5.96825558 -1.91434613 0 0 Z M-11.3125 12.9375 C-14.51217617 16.38302281 -14.68729864 18.86754087 -14.68481445 23.49438477 C-14.68846512 24.14363922 -14.69211578 24.79289368 -14.69587708 25.46182251 C-14.70396235 27.60111911 -14.69039177 29.73965348 -14.67578125 31.87890625 C-14.67526246 33.36815897 -14.6757809 34.85741238 -14.67729187 36.34666443 C-14.67720224 39.46453096 -14.66679114 42.5821384 -14.64868164 45.69995117 C-14.62597493 49.6971474 -14.62545488 53.69396584 -14.63219929 57.69120884 C-14.63553965 60.76498271 -14.62890828 63.83867038 -14.61907005 66.9124279 C-14.61522039 68.3864287 -14.61406887 69.86043908 -14.6156559 71.33444405 C-14.61602655 73.39315213 -14.60340764 75.45137461 -14.5871582 77.51000977 C-14.58255081 78.68153091 -14.57794342 79.85305206 -14.57319641 81.06007385 C-14.52538564 84.13531239 -14.52538564 84.13531239 -12.3125 86.9375 C-9.35503508 87.52095476 -9.35503508 87.52095476 -6.3125 86.9375 C-3.98261913 84.66087757 -3.35443447 83.26490519 -2.9382782 80.01574707 C-2.93890762 78.88197632 -2.93953705 77.74820557 -2.94018555 76.58007812 C-2.93395676 75.29194214 -2.92772797 74.00380615 -2.92131042 72.67663574 C-2.92999878 71.27400322 -2.93931679 69.87137448 -2.94921875 68.46875 C-2.94973762 67.0267334 -2.94921889 65.58471609 -2.94770813 64.1427002 C-2.94779776 61.12318334 -2.95820759 58.103934 -2.97631836 55.08447266 C-2.99900536 51.21740751 -2.99954867 47.35073308 -2.99280071 43.48361969 C-2.98945643 40.50673969 -2.99609944 37.52994848 -3.00592995 34.55308533 C-3.00977432 33.12735967 -3.01093332 31.70162412 -3.0093441 30.27589417 C-3.00897254 28.28221414 -3.02308927 26.28854735 -3.0378418 24.29492188 C-3.04475288 22.59426575 -3.04475288 22.59426575 -3.05180359 20.85925293 C-3.3092495 17.97392991 -3.6345055 16.28687919 -5.3125 13.9375 C-8.37158413 13.12165432 -8.37158413 13.12165432 -11.3125 12.9375 Z " fill="#EADAB1" transform="translate(236.3125,232.0625)"/>
<path d="M0 0 C6.27 0 12.54 0 19 0 C20.41047372 4.93665802 21.53127336 9.49118791 22.40454102 14.50830078 C22.53002319 15.22305573 22.65550537 15.93781067 22.78479004 16.67422485 C23.19468208 19.01398798 23.59930529 21.35462917 24.00390625 23.6953125 C24.28977014 25.33248829 24.57598488 26.96960286 24.86253357 28.60665894 C25.61341155 32.90147303 26.35990072 37.19703804 27.10534668 41.49279785 C28.01187434 46.71241227 28.92320613 51.93118954 29.83421993 57.15002251 C30.54289916 61.20996596 31.25074105 65.27004874 31.95594788 69.33059692 C32.08595688 70.07791077 32.21596588 70.82522461 32.34991455 71.59518433 C32.70022104 73.60889067 33.0499684 75.62269425 33.39967346 77.63650513 C33.89880412 80.43302219 34.43376021 83.21653833 35 86 C35.36403864 87.99822669 35.71782676 89.99834209 36.0625 92 C36.23910156 93.010625 36.41570312 94.02125 36.59765625 95.0625 C37 98 37 98 37 103 C32.38 103 27.76 103 23 103 C21.58823379 98.76470136 20.67558405 95.657052 20.1484375 91.375 C20.01953125 90.33859375 19.890625 89.3021875 19.7578125 88.234375 C19.56832031 86.63335937 19.56832031 86.63335937 19.375 85 C19.2409375 83.93265625 19.106875 82.8653125 18.96875 81.765625 C18.35796346 76.75468235 18 72.07510695 18 67 C13.38 67 8.76 67 4 67 C3.72285156 69.26359375 3.44570313 71.5271875 3.16015625 73.859375 C2.88935002 76.05704039 2.61768983 78.25459865 2.34594727 80.45214844 C2.15787937 81.97677808 1.97069627 83.50151714 1.78442383 85.02636719 C1.5161752 87.22099867 1.2447233 89.41521403 0.97265625 91.609375 C0.89032242 92.2886908 0.80798859 92.96800659 0.72315979 93.66790771 C0.32329092 96.86836862 -0.21530428 99.86121712 -1 103 C-5.62 103 -10.24 103 -15 103 C-14.67 99.37 -14.34 95.74 -14 92 C-14.66 91.67 -15.32 91.34 -16 91 C-15.01 90.505 -15.01 90.505 -14 90 C-13.42635382 88.00172743 -13.42635382 88.00172743 -13.11791992 85.54492188 C-12.90185593 84.11153221 -12.90185593 84.11153221 -12.681427 82.64918518 C-12.45820267 81.07486977 -12.45820267 81.07486977 -12.23046875 79.46875 C-12.06908417 78.38178329 -11.90769958 77.29481659 -11.74142456 76.1749115 C-11.21516244 72.61777287 -10.70139236 69.05894473 -10.1875 65.5 C-9.83027146 63.07286161 -9.47211569 60.64585952 -9.11303711 58.21899414 C-8.39958985 53.39025643 -7.69044753 48.56092118 -6.98535156 43.73095703 C-5.80546798 35.65617324 -4.5986834 27.5855872 -3.37661743 19.51708984 C-3.06860061 17.47788864 -2.76386983 15.43821812 -2.4597168 13.3984375 C-2.18768433 11.59052734 -2.18768433 11.59052734 -1.91015625 9.74609375 C-1.75683838 8.72185303 -1.60352051 7.6976123 -1.44555664 6.64233398 C-1.06878784 4.40794015 -0.54957045 2.1982818 0 0 Z M10 20 C9.4257851 23.89542197 8.85627487 27.79150056 8.29101562 31.68823242 C8.003762 33.66165521 7.71284265 35.63454328 7.421875 37.60742188 C7.15117187 39.47817383 7.15117187 39.47817383 6.875 41.38671875 C6.70742188 42.53358154 6.53984375 43.68044434 6.3671875 44.86206055 C6.0449329 47.61600897 5.92745789 50.23206495 6 53 C8.97 53 11.94 53 15 53 C14.41152509 41.87985348 12.74178643 30.98749553 11 20 C10.67 20 10.34 20 10 20 Z " fill="#EADAB1" transform="translate(381,231)"/>
<path d="M0 0 C11.55 0 23.1 0 35 0 C35 4.62 35 9.24 35 14 C28.4 14 21.8 14 15 14 C15 20.93 15 27.86 15 35 C21.6 35 28.2 35 35 35 C35 39.62 35 44.24 35 49 C28.4 49 21.8 49 15 49 C15 61.87 15 74.74 15 88 C21.27 88 27.54 88 34 88 C37.54338194 91.54338194 35 97.98890121 35 103 C23.45 103 11.9 103 0 103 C0 69.01 0 35.02 0 0 Z " fill="#EBDBB2" transform="translate(64,231)"/>
<path d="M0 0 C10.36391615 19.62180173 12.64702612 39.40908544 6.67675781 60.890625 C5.07180684 65.89306959 2.65965246 70.47859082 0 75 C-0.99 74.34 -1.98 73.68 -3 73 C-3 72.01 -3 71.02 -3 70 C-3.66 70 -4.32 70 -5 70 C-6.41438406 68.42713316 -7.75604401 66.78860004 -9.0625 65.125 C-12.11025865 61.31164438 -15.20500341 57.60191191 -18.5 54 C-22.3139003 49.81128536 -25.90276573 45.48402429 -29.45703125 41.07421875 C-31.39977879 38.72561304 -33.36883157 36.42720651 -35.38671875 34.14453125 C-36.2669873 33.14619263 -36.2669873 33.14619263 -37.16503906 32.12768555 C-38.32406946 30.81810891 -39.48858033 29.5133571 -40.65917969 28.21411133 C-41.19317383 27.60978271 -41.72716797 27.0054541 -42.27734375 26.3828125 C-42.75421631 25.85059082 -43.23108887 25.31836914 -43.72241211 24.77001953 C-45.26143634 22.63779601 -46.10669714 20.46361312 -47 18 C-16.00756836 4.7175293 -16.00756836 4.7175293 -13.97286987 3.84970093 C-12.65394157 3.28164795 -11.33905842 2.70411235 -10.02835083 2.11734009 C-6.49047217 0.54556032 -3.90054039 -0.35459458 0 0 Z " fill="#D2869A" transform="translate(317,67)"/>
<path d="M0 0 C21.9800936 0 39.783214 6.80463145 55.5 22.125 C65 32.05822476 65 32.05822476 65 36 C63.88202026 36.20979492 63.88202026 36.20979492 62.74145508 36.42382812 C59.09749605 37.11081532 55.4547143 37.80383473 51.8125 38.5 C50.79947815 38.69325363 50.79947815 38.69325363 49.76599121 38.89041138 C41.08771658 40.55200579 32.43763902 42.31332128 23.80859375 44.21484375 C22.54756584 44.49208786 22.54756584 44.49208786 21.26106262 44.77493286 C17.12158819 45.68718688 12.98488731 46.6103865 8.85083008 47.546875 C7.3328911 47.8843218 5.81490824 48.22157127 4.296875 48.55859375 C3.25357277 48.80028542 3.25357277 48.80028542 2.18919373 49.04685974 C-1.06521789 49.76250998 -2.77247974 50.07584009 -6 49 C-4.02 32.83 -2.04 16.66 0 0 Z " fill="#FB4934" transform="translate(251,31)"/>
<path d="M0 0 C4.61519701 0.75990113 6.72230006 2.12546576 10.25 5.25 C15.36706443 9.68127229 20.62497016 13.88535371 26 18 C26.72993164 18.56364258 27.45986328 19.12728516 28.21191406 19.70800781 C28.90510742 20.23749023 29.59830078 20.76697266 30.3125 21.3125 C30.92738281 21.78300781 31.54226563 22.25351563 32.17578125 22.73828125 C33.98383127 24.06714009 33.98383127 24.06714009 36.12109375 24.97265625 C39.01758745 26.55639397 39.72222043 29.061107 41 32 C38.68776649 35.01684905 36.34685488 38.01003969 34 41 C33.54496094 41.60714844 33.08992188 42.21429688 32.62109375 42.83984375 C19.62692085 59.32498847 -0.06951609 65.5589465 -20 68 C-19.42746155 60.34386534 -17.09513146 53.36586937 -14.74609375 46.09375 C-14.32092681 44.76016387 -13.89638138 43.42637945 -13.47242737 42.09240723 C-12.36234824 38.60526072 -11.24392087 35.12084872 -10.12365723 31.63696289 C-8.97901792 28.07210686 -7.84239974 24.50469592 -6.70507812 20.9375 C-4.47783794 13.95582666 -2.24176077 6.97702623 0 0 Z " fill="#83A598" transform="translate(276,111)"/>
<path d="M0 0 C-1.55915287 7.79210435 -3.89180899 15.23435538 -6.3515625 22.78515625 C-6.77504659 24.09497204 -7.19816661 25.40490558 -7.62094116 26.71495056 C-8.72534729 30.13385949 -9.8346356 33.55116429 -10.94500732 36.96813965 C-12.08091998 40.46672207 -13.21212651 43.96682527 -14.34375 47.46679688 C-16.55794082 54.31268055 -18.77730034 61.15687359 -21 68 C-24.26734474 66.73840335 -26.84155084 65.56678288 -29.53125 63.3125 C-30.17078613 62.78333984 -30.81032227 62.25417969 -31.46923828 61.70898438 C-32.13938965 61.14501953 -32.80954102 60.58105469 -33.5 60 C-34.92330874 58.82150167 -36.34780492 57.64443611 -37.7734375 56.46875 C-38.83643066 55.59089844 -38.83643066 55.59089844 -39.92089844 54.6953125 C-43.915954 51.43771905 -48.02611245 48.33344199 -52.1328125 45.21875 C-55.15375799 42.88101562 -58.07936708 40.46130489 -61 38 C-60.07320072 33.03500384 -57.0658763 29.87387818 -54 26 C-52.948125 24.5459375 -52.948125 24.5459375 -51.875 23.0625 C-40.79048456 10.06564004 -22.93380441 2.47633986 -6.3125 0.25 C-3 0 -3 0 0 0 Z " fill="#F9BC2F" transform="translate(251,31)"/>
<path d="M0 0 C4.62 0 9.24 0 14 0 C14 29.7 14 59.4 14 90 C20.27 90 26.54 90 33 90 C33 94.62 33 99.24 33 104 C21.78 104 10.56 104 -1 104 C-1.02254861 90.58773907 -1.04091369 77.17549062 -1.05181217 63.76321507 C-1.0570416 57.53606528 -1.06414033 51.30892908 -1.07543945 45.08178711 C-1.08626621 39.07773135 -1.09227638 33.07368871 -1.09487724 27.06962395 C-1.09673188 24.7733839 -1.10035321 22.47714461 -1.10573006 20.18091011 C-1.11293768 16.97679186 -1.11399106 13.7727285 -1.11352539 10.56860352 C-1.11712067 9.60907272 -1.12071594 8.64954193 -1.12442017 7.66093445 C-1.1230455 6.79290192 -1.12167084 5.92486938 -1.12025452 5.03053284 C-1.12117631 4.27189721 -1.1220981 3.51326159 -1.12304783 2.731637 C-1 1 -1 1 0 0 Z " fill="#EBDBB2" transform="translate(113,230)"/>
<path d="M0 0 C4.62 0 9.24 0 14 0 C14 29.7 14 59.4 14 90 C20.6 90 27.2 90 34 90 C34 94.62 34 99.24 34 104 C22.78 104 11.56 104 0 104 C0 69.68 0 35.36 0 0 Z " fill="#EBDBB2" transform="translate(160,230)"/>
<path d="M0 0 C2.375 1.625 2.375 1.625 4 4 C3.9375 7.625 3.9375 7.625 3 11 C-0.49124017 13.32749345 -1.89222251 13.50299316 -6 13 C-8.4375 11.4375 -8.4375 11.4375 -10 9 C-10 5.15278096 -9.81667389 2.93334158 -7.25 0 C-4.29428132 -1.31365275 -3.01638894 -1.13114585 0 0 Z " fill="#EBDBB2" transform="translate(257,96)"/>
<path d="" fill="#595959" transform="translate(0,0)"/>
<path d="" fill="#595959" transform="translate(0,0)"/>
<path d="" fill="#595959" transform="translate(0,0)"/>
<path d="" fill="#595959" transform="translate(0,0)"/>
<path d="" fill="#FFFFFF" transform="translate(0,0)"/>
<path d="" fill="#FFFFFF" transform="translate(0,0)"/>
<path d="" fill="#FFFFFF" transform="translate(0,0)"/>
<path d="" fill="#595959" transform="translate(0,0)"/>
<path d="" fill="#595959" transform="translate(0,0)"/>
<path d="" fill="#595959" transform="translate(0,0)"/>
<path d="" fill="#FFFFFF" transform="translate(0,0)"/>
<path d="" fill="#FFFFFF" transform="translate(0,0)"/>
<path d="" fill="#FFFFFF" transform="translate(0,0)"/>
<path d="" fill="#595959" transform="translate(0,0)"/>
<path d="" fill="#595959" transform="translate(0,0)"/>
<path d="" fill="#595959" transform="translate(0,0)"/>
<path d="" fill="#FFFFFF" transform="translate(0,0)"/>
<path d="" fill="#FFFFFF" transform="translate(0,0)"/>
<path d="" fill="#595959" transform="translate(0,0)"/>
<path d="" fill="#595959" transform="translate(0,0)"/>
<path d="" fill="#595959" transform="translate(0,0)"/>
<path d="" fill="#595959" transform="translate(0,0)"/>
<path d="" fill="#595959" transform="translate(0,0)"/>
<path d="" fill="#595959" transform="translate(0,0)"/>
<path d="" fill="#595959" transform="translate(0,0)"/>
<path d="" fill="#595959" transform="translate(0,0)"/>
<path d="" fill="#595959" transform="translate(0,0)"/>
<path d="" fill="#595959" transform="translate(0,0)"/>
<path d="" fill="#595959" transform="translate(0,0)"/>
<path d="" fill="#595959" transform="translate(0,0)"/>
<path d="" fill="#595959" transform="translate(0,0)"/>
<path d="" fill="#595959" transform="translate(0,0)"/>
<path d="" fill="#595959" transform="translate(0,0)"/>
<path d="" fill="#595959" transform="translate(0,0)"/>
<path d="" fill="#595959" transform="translate(0,0)"/>
<path d="" fill="#595959" transform="translate(0,0)"/>
<path d="" fill="#595959" transform="translate(0,0)"/>
<path d="" fill="#595959" transform="translate(0,0)"/>
<path d="" fill="#595959" transform="translate(0,0)"/>
<path d="" fill="#595959" transform="translate(0,0)"/>
<path d="" fill="#595959" transform="translate(0,0)"/>
<path d="" fill="#595959" transform="translate(0,0)"/>
<path d="" fill="#595959" transform="translate(0,0)"/>
<path d="" fill="#595959" transform="translate(0,0)"/>
<path d="" fill="#595959" transform="translate(0,0)"/>
<path d="" fill="#595959" transform="translate(0,0)"/>
<path d="" fill="#595959" transform="translate(0,0)"/>
<path d="" fill="#595959" transform="translate(0,0)"/>
<path d="" fill="#595959" transform="translate(0,0)"/>
<path d="" fill="#595959" transform="translate(0,0)"/>
<path d="" fill="#595959" transform="translate(0,0)"/>
<path d="" fill="#595959" transform="translate(0,0)"/>
<path d="" fill="#595959" transform="translate(0,0)"/>
<path d="" fill="#595959" transform="translate(0,0)"/>
<path d="" fill="#595959" transform="translate(0,0)"/>
<path d="" fill="#595959" transform="translate(0,0)"/>
<path d="" fill="#595959" transform="translate(0,0)"/>
<path d="" fill="#595959" transform="translate(0,0)"/>
<path d="" fill="#595959" transform="translate(0,0)"/>
<path d="" fill="#595959" transform="translate(0,0)"/>
<path d="" fill="#595959" transform="translate(0,0)"/>
<path d="" fill="#595959" transform="translate(0,0)"/>
<path d="" fill="#595959" transform="translate(0,0)"/>
<path d="" fill="#595959" transform="translate(0,0)"/>
<path d="" fill="#595959" transform="translate(0,0)"/>
<path d="" fill="#595959" transform="translate(0,0)"/>
<path d="" fill="#595959" transform="translate(0,0)"/>
<path d="" fill="#595959" transform="translate(0,0)"/>
<path d="" fill="#3F3F3F" transform="translate(0,0)"/>
<path d="" fill="#3F3F3F" transform="translate(0,0)"/>
<path d="" fill="#595959" transform="translate(0,0)"/>
<path d="" fill="#595959" transform="translate(0,0)"/>
<path d="" fill="#595959" transform="translate(0,0)"/>
<path d="" fill="#595959" transform="translate(0,0)"/>
<path d="" fill="#595959" transform="translate(0,0)"/>
<path d="" fill="#595959" transform="translate(0,0)"/>
<path d="" fill="#595959" transform="translate(0,0)"/>
<path d="" fill="#595959" transform="translate(0,0)"/>
<path d="" fill="#595959" transform="translate(0,0)"/>
<path d="" fill="#595959" transform="translate(0,0)"/>
<path d="" fill="#595959" transform="translate(0,0)"/>
<path d="" fill="#595959" transform="translate(0,0)"/>
<path d="" fill="#595959" transform="translate(0,0)"/>
<path d="" fill="#595959" transform="translate(0,0)"/>
<path d="" fill="#595959" transform="translate(0,0)"/>
<path d="" fill="#595959" transform="translate(0,0)"/>
<path d="" fill="#595959" transform="translate(0,0)"/>
<path d="" fill="#595959" transform="translate(0,0)"/>
<path d="" fill="#595959" transform="translate(0,0)"/>
<path d="" fill="#595959" transform="translate(0,0)"/>
<path d="" fill="#595959" transform="translate(0,0)"/>
<path d="" fill="#595959" transform="translate(0,0)"/>
<path d="" fill="#595959" transform="translate(0,0)"/>
<path d="" fill="#595959" transform="translate(0,0)"/>
<path d="" fill="#595959" transform="translate(0,0)"/>
<path d="" fill="#595959" transform="translate(0,0)"/>
<path d="" fill="#595959" transform="translate(0,0)"/>
<path d="" fill="#3F3F3F" transform="translate(0,0)"/>
<path d="" fill="#595959" transform="translate(0,0)"/>
<path d="" fill="#595959" transform="translate(0,0)"/>
<path d="" fill="#595959" transform="translate(0,0)"/>
<path d="" fill="#3F3F3F" transform="translate(0,0)"/>
<path d="" fill="#3F3F3F" transform="translate(0,0)"/>
<path d="" fill="#3F3F3F" transform="translate(0,0)"/>
<path d="" fill="#595959" transform="translate(0,0)"/>
<path d="" fill="#595959" transform="translate(0,0)"/>
<path d="" fill="#595959" transform="translate(0,0)"/>
<path d="" fill="#3F3F3F" transform="translate(0,0)"/>
<path d="" fill="#595959" transform="translate(0,0)"/>
<path d="" fill="#595959" transform="translate(0,0)"/>
<path d="" fill="#595959" transform="translate(0,0)"/>
<path d="" fill="#595959" transform="translate(0,0)"/>
<path d="" fill="#595959" transform="translate(0,0)"/>
<path d="" fill="#595959" transform="translate(0,0)"/>
<path d="" fill="#595959" transform="translate(0,0)"/>
<path d="" fill="#595959" transform="translate(0,0)"/>
<path d="" fill="#595959" transform="translate(0,0)"/>
<path d="" fill="#595959" transform="translate(0,0)"/>
<path d="" fill="#595959" transform="translate(0,0)"/>
<path d="" fill="#595959" transform="translate(0,0)"/>
<path d="" fill="#595959" transform="translate(0,0)"/>
<path d="" fill="#595959" transform="translate(0,0)"/>
<path d="" fill="#595959" transform="translate(0,0)"/>
<path d="" fill="#595959" transform="translate(0,0)"/>
</svg>
