<?xml version="1.0" encoding="UTF-8"?>
<!DOCTYPE svg PUBLIC "-//W3C//DTD SVG 1.1//EN" "http://www.w3.org/Graphics/SVG/1.1/DTD/svg11.dtd">
<svg xmlns="http://www.w3.org/2000/svg" version="1.1" width="591px" height="112px" style="shape-rendering:geometricPrecision; text-rendering:geometricPrecision; image-rendering:optimizeQuality; fill-rule:evenodd; clip-rule:evenodd" xmlns:xlink="http://www.w3.org/1999/xlink">
<g><path style="opacity:1" fill="#d79922" d="M 46.5,-0.5 C 49.5,-0.5 52.5,-0.5 55.5,-0.5C 46.0137,17.1406 36.0137,34.4739 25.5,51.5C 20.7491,44.3337 16.2491,37.0004 12,29.5C 10.4101,27.3502 9.74339,25.0168 10,22.5C 19.2431,10.0712 31.4098,2.40452 46.5,-0.5 Z"/></g>
<g><path style="opacity:1" fill="#fb4934" d="M 59.5,-0.5 C 61.1667,-0.5 62.8333,-0.5 64.5,-0.5C 81.9101,2.89549 95.2435,12.2288 104.5,27.5C 84.5111,28.4996 64.5111,28.833 44.5,28.5C 49.2243,18.7188 54.2243,9.05214 59.5,-0.5 Z"/></g>
<g><path style="opacity:0.999" fill="#ebdbb1" d="M 379.5,24.5 C 396.058,22.4867 407.891,28.82 415,43.5C 415.667,44.8333 415.667,46.1667 415,47.5C 411.596,48.8007 408.096,49.8007 404.5,50.5C 401.298,36.7184 392.632,31.2184 378.5,34C 370.592,36.2425 365.759,41.4092 364,49.5C 361.486,65.8049 368.32,75.1382 384.5,77.5C 395.174,77.1499 401.507,71.8165 403.5,61.5C 396.5,61.5 389.5,61.5 382.5,61.5C 382.5,59.1667 382.5,56.8333 382.5,54.5C 393.167,54.5 403.833,54.5 414.5,54.5C 414.5,64.5 414.5,74.5 414.5,84.5C 411.167,84.5 407.833,84.5 404.5,84.5C 404.665,81.4816 404.498,78.4816 404,75.5C 400.857,80.497 396.357,83.6636 390.5,85C 367.386,88.3043 354.719,78.471 352.5,55.5C 352.941,37.5763 361.941,27.243 379.5,24.5 Z"/></g>
<g><path style="opacity:1" fill="#eadbb1" d="M 130.5,25.5 C 133.833,25.5 137.167,25.5 140.5,25.5C 140.5,34.1667 140.5,42.8333 140.5,51.5C 152.5,51.5 164.5,51.5 176.5,51.5C 176.5,42.8333 176.5,34.1667 176.5,25.5C 180.167,25.5 183.833,25.5 187.5,25.5C 187.5,45.1667 187.5,64.8333 187.5,84.5C 183.833,84.5 180.167,84.5 176.5,84.5C 176.5,75.8333 176.5,67.1667 176.5,58.5C 164.5,58.5 152.5,58.5 140.5,58.5C 140.5,67.1667 140.5,75.8333 140.5,84.5C 137.167,84.5 133.833,84.5 130.5,84.5C 130.5,64.8333 130.5,45.1667 130.5,25.5 Z"/></g>
<g><path style="opacity:1" fill="#ebdab1" d="M 261.5,25.5 C 263.488,44.8049 264.154,64.4716 263.5,84.5C 260.167,84.5 256.833,84.5 253.5,84.5C 253.5,65.1667 253.5,45.8333 253.5,26.5C 256.385,26.8064 259.052,26.4731 261.5,25.5 Z"/></g>
<g><path style="opacity:1" fill="#ebdab1" d="M 284.5,25.5 C 286.488,44.8049 287.154,64.4716 286.5,84.5C 283.167,84.5 279.833,84.5 276.5,84.5C 276.5,65.1667 276.5,45.8333 276.5,26.5C 279.385,26.8064 282.052,26.4731 284.5,25.5 Z"/></g>
<g><path style="opacity:1" fill="#b8bb26" d="M -0.5,64.5 C -0.5,58.5 -0.5,52.5 -0.5,46.5C 1.09268,39.9035 3.59268,33.5702 7,27.5C 17.4189,44.669 27.5855,62.0023 37.5,79.5C 26.5202,80.4988 15.5202,80.8321 4.5,80.5C 2.80194,75.0781 1.13527,69.7447 -0.5,64.5 Z"/></g>
<g><path style="opacity:1" fill="#d3869a" d="M 74.5,31.5 C 85.415,31.1797 96.2483,31.513 107,32.5C 113.786,50.0247 112.786,67.0247 104,83.5C 93.3646,66.5558 83.5313,49.2225 74.5,31.5 Z"/></g>
<g><path style="opacity:1" fill="#ebdbb0" d="M 214.5,41.5 C 232.862,39.2055 242.195,47.2055 242.5,65.5C 231.19,64.6437 219.857,64.3104 208.5,64.5C 208.698,73.1839 213.198,77.8505 222,78.5C 225.145,78.0099 227.978,76.8433 230.5,75C 231.636,72.2233 233.136,69.7233 235,67.5C 237.791,68.4062 240.624,69.0728 243.5,69.5C 242.641,76.865 238.641,81.6983 231.5,84C 222.903,86.4099 214.57,85.7432 206.5,82C 195.686,71.2312 194.686,59.5645 203.5,47C 206.99,44.588 210.657,42.7547 214.5,41.5 Z M 219.5,48.5 C 226.29,48.6319 230.29,51.9652 231.5,58.5C 223.826,58.6664 216.159,58.4997 208.5,58C 210.522,52.8038 214.189,49.6372 219.5,48.5 Z"/></g>
<g><path style="opacity:1" fill="#ebdbb1" d="M 313.5,41.5 C 336.144,39.3075 345.977,49.3075 343,71.5C 338.659,81.0939 331.159,85.7605 320.5,85.5C 300.898,84.0539 293.398,73.7206 298,54.5C 301.266,47.7209 306.433,43.3876 313.5,41.5 Z M 319.5,48.5 C 332.678,51.8592 336.512,59.8592 331,72.5C 324.27,79.8666 317.27,80.1999 310,73.5C 304.758,64.3119 306.258,56.4786 314.5,50C 316.382,49.8019 318.048,49.3019 319.5,48.5 Z"/></g>
<g><path style="opacity:1" fill="#ebdbb1" d="M 444.5,41.5 C 454.165,39.4788 458.832,43.3121 458.5,53C 458.316,55.865 457.982,58.6984 457.5,61.5C 453.863,62.4968 450.196,62.9968 446.5,63C 448.483,58.9573 448.816,54.7906 447.5,50.5C 444.671,48.4351 442.171,49.1018 440,52.5C 439.138,54.087 438.471,55.7536 438,57.5C 437.5,66.4938 437.334,75.4938 437.5,84.5C 434.167,84.5 430.833,84.5 427.5,84.5C 427.5,70.5 427.5,56.5 427.5,42.5C 429.5,42.5 431.5,42.5 433.5,42.5C 434.224,45.8426 435.057,49.176 436,52.5C 437.553,47.7879 440.386,44.1213 444.5,41.5 Z"/></g>
<g><path style="opacity:1" fill="#ebdbb0" d="M 477.5,41.5 C 486.02,40.0496 493.52,42.0496 500,47.5C 500.667,48.8333 501.333,50.1667 502,51.5C 502.168,60.1858 502.668,68.8525 503.5,77.5C 506.124,78.1156 508.291,77.1156 510,74.5C 514.075,79.3648 513.242,82.8648 507.5,85C 497.288,87.1236 492.122,82.9569 492,72.5C 487.358,83.2391 479.525,87.0724 468.5,84C 463.768,78.9649 463.268,73.4649 467,67.5C 474.207,60.9834 482.707,57.3167 492.5,56.5C 492.159,51.6384 489.492,48.9718 484.5,48.5C 478.782,49.2196 474.782,52.2196 472.5,57.5C 469.065,56.6326 465.731,55.466 462.5,54C 465.652,47.4485 470.652,43.2818 477.5,41.5 Z M 490.5,60.5 C 491.586,60.62 492.253,61.2867 492.5,62.5C 490.328,70.0062 485.661,75.3395 478.5,78.5C 473.836,76.007 473.336,72.6736 477,68.5C 481.183,65.1637 485.683,62.497 490.5,60.5 Z"/></g>
<g><path style="opacity:1" fill="#ebdbb1" d="M 590.5,52.5 C 590.5,63.1667 590.5,73.8333 590.5,84.5C 587.167,84.5 583.833,84.5 580.5,84.5C 580.666,74.4944 580.5,64.4944 580,54.5C 575.518,48.6719 570.018,47.5053 563.5,51C 561.959,52.5793 560.792,54.4127 560,56.5C 559.5,65.8274 559.334,75.1607 559.5,84.5C 556.167,84.5 552.833,84.5 549.5,84.5C 549.666,74.8276 549.5,65.1609 549,55.5C 547.459,51.1301 544.292,48.7968 539.5,48.5C 534.217,48.8854 530.717,51.552 529,56.5C 528.5,65.8274 528.334,75.1607 528.5,84.5C 525.167,84.5 521.833,84.5 518.5,84.5C 518.5,70.5 518.5,56.5 518.5,42.5C 520.467,42.2606 522.301,42.5939 524,43.5C 524.848,46.5597 525.848,49.5597 527,52.5C 532.478,41.6911 540.978,38.5245 552.5,43C 555.473,44.7648 557.64,47.2648 559,50.5C 564.36,42.3752 571.86,39.5419 581.5,42C 586.561,43.8836 589.561,47.3836 590.5,52.5 Z"/></g>
<g><path style="opacity:1" fill="#84a598" d="M 63.5,111.5 C 60.8333,111.5 58.1667,111.5 55.5,111.5C 65.4029,94.0299 75.5696,76.6965 86,59.5C 90.3333,66.8333 94.6667,74.1667 99,81.5C 100.59,83.6498 101.257,85.9832 101,88.5C 91.3304,100.912 78.8304,108.579 63.5,111.5 Z"/></g>
<g><path style="opacity:1" fill="#8ec07c" d="M 52.5,111.5 C 50.1667,111.5 47.8333,111.5 45.5,111.5C 29.0457,107.93 16.379,98.9304 7.5,84.5C 27.5,83.1667 47.5,83.1667 67.5,84.5C 62.2221,93.3932 57.2221,102.393 52.5,111.5 Z"/></g>
</svg>
