<svg data-v-423bf9ae="" xmlns="http://www.w3.org/2000/svg" viewBox="0 0 591 112" class="iconLeft"><!----><!----><!----><g data-v-423bf9ae="" id="22663503-1e37-4464-907a-c050ec4799bb" fill="#FED36A" transform="matrix(5.323868461661617,0,0,5.323868461661617,124.58309619128465,5.558242201714684)"><path d="M9.94 14.87L11.76 14.87L11.76 3.99L9.94 3.99L9.94 8.82L3.08 8.82L3.08 3.99L1.26 3.99L1.26 14.87L3.08 14.87L3.08 10.01L9.94 10.01ZM22.36 12.28L20.62 11.77C20.62 11.77 20.62 13.82 18.38 13.82C16.83 13.82 15.68 12.82 15.65 11.05L22.15 11.19C22.15 11.19 22.54 6.90 18.17 6.90C15.43 6.90 13.86 8.65 13.86 10.98C13.86 13.61 15.90 15.06 18.17 15.06C21.87 15.06 22.36 12.28 22.36 12.28ZM20.37 10.12L15.72 10.19C15.96 8.96 16.77 8.15 18.07 8.15C20.27 8.15 20.37 10.12 20.37 10.12ZM24.46 14.87L26.14 14.87L26.14 3.99C26.14 3.99 25.35 4.14 24.46 4.14ZM28.66 14.87L30.34 14.87L30.34 3.99C30.34 3.99 29.55 4.14 28.66 4.14ZM32.44 10.98C32.44 13.27 34.08 15.06 36.85 15.06C39.62 15.06 41.26 13.27 41.26 10.98C41.26 8.69 39.62 6.90 36.85 6.90C34.08 6.90 32.44 8.69 32.44 10.98ZM34.23 10.98C34.23 9.30 35.22 8.15 36.85 8.15C38.44 8.15 39.47 9.30 39.47 10.98C39.47 12.66 38.44 13.82 36.85 13.82C35.22 13.82 34.23 12.66 34.23 10.98ZM54.70 7.88C54.70 7.88 54.05 3.79 49 3.79C45.14 3.79 42.94 6.16 42.94 9.44C42.94 12.70 45.14 15.06 48.58 15.06C51.94 15.06 52.70 12.77 52.70 12.77L52.70 14.87L54.52 14.87L54.52 9.35L48.59 9.35L48.59 10.54L52.70 10.54C52.70 10.54 52.49 13.68 48.86 13.68C46.37 13.68 44.86 11.83 44.86 9.44C44.86 7.03 46.37 5.18 49 5.18C52.50 5.18 52.82 8.44 52.82 8.44ZM58.80 10.26C58.80 9.81 59.26 8.15 60.34 8.15C60.80 8.15 61.03 8.50 61.03 9.17C61.03 10.07 60.73 10.96 60.73 10.96L62.47 10.46C62.47 10.46 62.75 9.80 62.75 8.81C62.75 7.78 62.34 6.90 61.05 6.90C58.91 6.90 58.65 9.41 58.65 9.41L57.93 7.10L57.12 7.10L57.12 14.87L58.80 14.87ZM70.94 13.01L71.02 9.74C71.06 8.15 69.93 6.90 67.61 6.90C64.48 6.90 63.73 9.21 63.73 9.21L65.46 9.72C65.46 9.72 65.84 8.15 67.66 8.15C69.47 8.15 69.33 9.77 69.33 9.77C65.16 10.25 64.01 12.05 64.01 13.36C64.01 14.32 64.74 15.06 65.88 15.06C68.21 15.06 69.33 11.93 69.33 11.93L69.33 13.26C69.33 14.63 70.20 15.06 71.06 15.06C72.37 15.06 72.88 14.36 72.88 14.36L72.55 13.12C72.55 13.12 72.24 13.82 71.55 13.82C71.11 13.82 70.92 13.50 70.94 13.01ZM65.79 13.01C65.79 12.32 66.21 11.05 69.33 10.25L69.33 10.74C69.36 11.33 68.01 13.82 66.53 13.82C66.07 13.82 65.79 13.54 65.79 13.01ZM85.85 14.87L87.53 14.87L87.53 10.05C87.53 8.09 86.86 6.90 84.69 6.90C82.52 6.90 81.82 8.37 81.61 9.06C81.38 7.70 80.60 6.90 78.83 6.90C76.01 6.90 75.67 9.41 75.67 9.41L74.96 7.10L74.14 7.10L74.14 14.87L75.82 14.87L75.82 10.25C75.82 9.77 76.10 8.15 78.08 8.15C79.30 8.15 79.95 8.75 80.00 9.98L80.00 14.87L81.68 14.87L81.68 10.25C81.68 9.77 81.96 8.15 83.93 8.15C85.19 8.15 85.85 8.78 85.85 10.08Z"></path></g><!----><g data-v-423bf9ae="" id="77b03844-eda8-4fda-86f1-7e74acadb319" transform="matrix(1.112911139594184,0,0,1.112911139594184,0.3544133023572371,0.26361832467940616)" stroke="none" fill="#FFC096"><path d="M93.557 74.68A49.56 49.56 0 0 0 100 50.171C100 42.581 98.306 35 95.28 29H67.138l26.419 45.68zM6.431 25.554C2.338 32.804 0 41.222 0 50.142 0 57.962 1.797 65 4.998 72h28.179L6.431 25.554zM40.106 25h53.14C85.276 11 70.986 1.738 54.369.299L40.106 25zM23.125 46.318L49.863.006C32.858.052 17.851 8.588 8.853 21.598l14.272 24.72zM77.189 54.316L50.816 99.994c16.709-.268 31.424-8.729 40.306-21.544L77.189 54.316zM60.209 76H7.101c8.136 13 22.514 22.937 39.16 24.168L60.209 76z"></path></g><!----></svg>